<svg width="21" height="24" viewBox="0 0 21 24" fill="none" xmlns="http://www.w3.org/2000/svg">
<path fill-rule="evenodd" clip-rule="evenodd" d="M21 4.28878L21 2.57327L12.25 2.57327L12.25 4.28878L21 4.28878ZM12.25 14.7534L12.25 9.26376L13.2125 8.57756L14.9625 8.57756L15.75 9.26376L15.75 14.7534L14.875 15.4396L13.125 15.4396L12.25 14.7534ZM7 6.17584L7 0.686204L7.875 -5.73712e-07L9.625 -4.97217e-07L10.5 0.686204L10.5 6.17584L9.625 6.86204L7.875 6.86204L7 6.17584ZM21 12.8663L21 11.1508L17.5 11.1508L17.5 12.8663L21 12.8663ZM10.5 11.1508L10.5 12.8663L-5.62405e-07 12.8663L-4.87418e-07 11.1508L10.5 11.1508ZM5.25 4.28878L5.25 2.57327L-1.12481e-07 2.57327L-1.87468e-07 4.28878L5.25 4.28878ZM5.25 17.8413L5.25 23.3138L6.125 24L7.7875 24L8.6625 23.3138L8.6625 17.8413L7.7875 17.1551L6.125 17.1551L5.25 17.8413ZM21 21.4439L21 19.7284L10.5 19.7284L10.5 21.4439L21 21.4439ZM3.5 19.7284L3.5 21.4439L-9.37342e-07 21.4439L-8.62355e-07 19.7284L3.5 19.7284Z" fill="#123E3C"/>
</svg>
