<svg width="359" height="244" viewBox="0 0 359 244" fill="none" xmlns="http://www.w3.org/2000/svg">
<path d="M215.098 0C215.907 0.165424 216.737 0.31017 217.547 0.475593C219.477 0.889153 220.121 1.67492 219.664 3.59797C219.041 6.12068 218.315 8.62271 217.36 11.042C214.101 19.458 210.531 27.7498 206.006 35.5868C202.187 42.2451 197.351 48.1797 192.411 54.0315C186.413 61.1034 179.874 67.6376 172.547 73.3447C164.349 79.7136 155.569 85.1519 146.332 89.8664C137.843 94.2295 129.022 97.8068 119.868 100.557C117.087 101.384 115.468 103.121 114.887 106.057C113.725 111.868 112.23 117.637 111.088 123.447C110.175 128.1 109.47 132.815 108.909 137.529C108.286 142.74 107.871 147.992 107.477 153.244C107.269 156.098 107.124 158.952 107.228 161.805C107.456 168.774 107.705 175.763 108.203 182.711C109.158 196.089 111.4 209.302 113.974 222.454C114.451 224.914 114.97 227.354 115.468 229.815C115.51 230.001 115.53 230.208 115.572 230.518C114.576 230.601 113.6 230.704 112.624 230.787C111.628 230.87 110.632 230.87 109.656 231.014C109.054 231.097 108.868 230.911 108.743 230.353C107.581 225.245 106.252 220.179 105.256 215.051C103.99 208.641 102.869 202.189 101.914 195.717C101.209 190.94 100.793 186.122 100.482 181.304C100.129 175.928 99.9217 170.552 99.9009 165.155C99.8594 156.925 100.337 148.737 101.209 140.548C102.952 124.213 106.128 108.166 111.151 92.5339C116.568 75.64 124.352 59.8834 134.771 45.4708C144.319 32.2576 156.399 21.8773 170.555 13.8129C180.871 7.94034 191.809 3.70136 203.412 1.15797C205.716 0.661695 208.082 0.475593 210.407 0.144746C210.656 0.10339 210.884 0.0413559 211.133 0C212.462 0 213.769 0 215.098 0ZM209.659 10.6905C209.701 8.70542 209.078 8.04373 207.708 8.04373C207.21 8.04373 206.691 8.04373 206.193 8.18847C204.823 8.56068 203.453 8.93288 202.104 9.3878C187.139 14.2885 173.461 21.6292 160.841 30.9342C156.752 33.9532 152.684 36.9929 149.238 40.7356C136.453 54.6105 126.842 70.4292 120.533 88.2122C120.304 88.8532 120.159 89.5356 120.055 90.1973C119.827 91.8308 120.74 92.7407 122.38 92.4719C123.148 92.3478 123.916 92.1203 124.642 91.8308C137.241 86.8888 149.031 80.458 160.115 72.7451C165.096 69.2712 170.015 65.7146 174.312 61.4342C184.877 50.8885 193.968 39.2054 201.648 26.4264C204.138 22.2908 206.359 17.9898 208.601 13.7302C209.182 12.6342 209.431 11.3729 209.659 10.7319V10.6905Z" fill="white"/>
<path d="M28.2509 171.482C29.7038 169.166 31.0945 166.933 32.4852 164.7C34.9551 160.751 37.4044 156.801 39.8951 152.852C40.0612 152.603 40.414 152.314 40.6838 152.314C44.0463 152.273 47.3881 152.293 50.7506 152.314C50.8128 152.314 50.8959 152.335 50.9996 152.376V197.619H41.0575V168.422C41.0575 168.422 40.9329 168.381 40.8914 168.36C36.6779 174.729 32.4437 181.118 28.1264 187.653C23.8506 181.201 19.6579 174.874 15.4651 168.546C15.4029 168.546 15.3406 168.587 15.2991 168.608V197.661H5.56445V152.355H6.24941C9.38358 152.355 12.497 152.355 15.6312 152.355C16.1293 152.355 16.3992 152.5 16.6482 152.914C20.2806 158.786 23.9544 164.638 27.6075 170.511C27.815 170.821 28.0018 171.152 28.2717 171.544L28.2509 171.482Z" fill="white"/>
<path d="M301.318 162.984H311.115V167.822C311.572 167.305 311.904 166.954 312.236 166.582C316.616 161.681 322.676 161.412 327.077 163.521C328.924 164.411 330.211 165.879 331.519 167.905C331.643 167.657 331.705 167.347 331.871 167.14C334.341 164.493 337.31 162.756 340.963 162.405C344.844 162.033 348.476 162.57 351.361 165.527C353.105 167.326 353.935 169.559 354.267 171.979C354.413 173.137 354.475 174.295 354.475 175.453C354.475 182.483 354.475 189.514 354.475 196.565V197.599H344.574V196.751C344.574 190.547 344.595 184.344 344.553 178.161C344.553 177.024 344.367 175.825 344.055 174.729C343.516 172.93 342.27 171.793 340.361 171.379C336.396 170.531 333.366 172.682 332.909 176.693C332.826 177.376 332.785 178.058 332.785 178.74C332.785 184.716 332.785 190.692 332.785 196.647C332.785 196.958 332.785 197.247 332.785 197.599H322.905C322.905 197.33 322.905 197.04 322.905 196.751C322.905 190.444 322.946 184.158 322.863 177.851C322.863 176.59 322.531 175.287 322.116 174.108C321.576 172.599 320.352 171.731 318.774 171.4C314.436 170.448 311.24 172.971 311.157 177.582C311.053 182.338 311.115 187.094 311.115 191.85C311.115 193.753 311.115 195.634 311.115 197.599H301.318V162.963V162.984Z" fill="white"/>
<path d="M152.227 183.724H127.983C128.523 186.267 129.665 188.294 131.927 189.472C135.248 191.188 138.611 190.878 141.848 189.203C142.949 188.645 143.924 187.839 145.045 187.094C146.83 188.666 148.719 190.32 150.608 191.995C147.972 195.221 144.692 197.288 140.645 198.054C135.808 198.943 131.118 198.612 126.78 196.089C121.757 193.174 118.934 188.748 118.29 182.979C117.834 178.802 118.353 174.812 120.428 171.089C123.936 164.783 130.495 161.536 137.676 162.405C141.267 162.839 144.485 164.018 147.038 166.644C149.715 169.415 151.272 172.785 151.957 176.548C152.393 178.885 152.455 181.263 152.206 183.724H152.227ZM127.942 177.562H142.658C142.741 173.633 139.337 170.2 135.435 170.2C131.512 170.2 127.88 173.736 127.963 177.562H127.942Z" fill="white"/>
<path d="M292.29 197.64H282.493V193.215C281.829 193.794 281.082 194.435 280.355 195.076C276.598 198.467 272.26 199.149 267.59 197.557C263.46 196.151 261.425 192.884 260.699 188.748C260.491 187.57 260.429 186.329 260.429 185.13C260.408 178.079 260.429 171.007 260.429 163.956C260.429 163.645 260.429 163.356 260.429 163.004H270.288V163.873C270.288 169.869 270.288 175.866 270.288 181.863C270.288 182.979 270.413 184.158 270.703 185.233C271.451 188.045 273.464 189.452 276.474 189.389C279.379 189.327 281.497 187.735 282.161 185.047C282.389 184.117 282.493 183.145 282.493 182.194C282.514 176.094 282.493 169.994 282.493 163.894V163.004H292.29V197.64Z" fill="white"/>
<path d="M159.844 162.984H169.62V167.843C170.077 167.326 170.409 166.954 170.741 166.602C174.165 162.86 178.358 161.578 183.277 162.674C187.636 163.645 190.687 167.099 191.435 171.834C191.621 172.971 191.704 174.15 191.704 175.308C191.725 182.442 191.704 189.576 191.704 196.71C191.704 196.999 191.704 197.309 191.704 197.64H181.845C181.845 197.33 181.845 197.04 181.845 196.751C181.845 190.734 181.845 184.716 181.845 178.699C181.845 177.748 181.741 176.776 181.555 175.845C180.974 172.992 178.939 171.296 176.2 171.276C172.858 171.234 170.658 172.744 169.952 175.68C169.744 176.59 169.641 177.52 169.641 178.451C169.62 184.53 169.641 190.589 169.641 196.668V197.64H159.844V163.004V162.984Z" fill="white"/>
<path d="M232.428 197.64H222.568C222.568 197.351 222.568 197.061 222.568 196.772C222.568 190.754 222.568 184.737 222.568 178.72C222.568 177.769 222.485 176.797 222.278 175.866C221.697 173.013 219.683 171.317 216.943 171.276C213.56 171.234 211.381 172.764 210.675 175.742C210.468 176.652 210.364 177.582 210.364 178.513C210.343 184.592 210.364 190.651 210.364 196.73V197.661H200.525V163.004H210.322V167.864C210.634 167.512 210.82 167.326 210.986 167.14C212.917 164.928 215.158 163.17 218.106 162.612C224.478 161.392 230.892 164.1 232.158 171.999C232.345 173.116 232.407 174.253 232.428 175.391C232.448 182.504 232.428 189.617 232.428 196.71C232.428 196.999 232.428 197.309 232.428 197.64Z" fill="white"/>
<path d="M90.9344 197.64H81.1582V150.432H90.9344V197.64Z" fill="white"/>
<path d="M71.2989 163.004V197.619H61.502V163.004H71.2989Z" fill="white"/>
<path d="M251.296 197.64H241.52V163.004H251.296V197.64Z" fill="white"/>
<path d="M192.411 229.505C194.507 232.296 196.583 235.026 198.741 237.921C197.766 237.921 196.915 237.962 196.064 237.9C195.856 237.9 195.607 237.61 195.462 237.404C193.698 235.088 191.954 232.751 190.231 230.415C189.92 230.001 189.609 229.836 189.09 229.856C187.367 229.877 185.644 229.856 183.838 229.856V237.879H181.514V217.181C181.763 217.181 181.991 217.139 182.199 217.139C185.125 217.139 188.052 217.139 190.958 217.139C192.452 217.139 193.884 217.47 195.171 218.256C197.309 219.538 198.139 221.502 197.973 223.922C197.828 226.155 196.645 227.706 194.673 228.657C193.967 229.008 193.22 229.215 192.39 229.505H192.411ZM183.859 227.623C186.495 227.623 189.069 227.747 191.601 227.582C193.345 227.458 194.798 226.548 195.4 224.769C196.292 222.164 194.735 219.786 191.829 219.435C190.024 219.228 188.176 219.31 186.371 219.269C185.54 219.269 184.71 219.269 183.838 219.269V227.644L183.859 227.623Z" fill="white"/>
<path d="M206.193 217.16H208.518V229.153C209.618 228.161 210.78 227.168 211.86 226.072C214.579 223.301 217.256 220.51 219.934 217.718C220.328 217.305 220.723 217.098 221.325 217.139C221.989 217.181 222.674 217.139 223.545 217.139C220.494 220.241 217.588 223.198 214.62 226.217C217.692 230.084 220.764 233.93 223.94 237.921C222.944 237.921 222.093 237.962 221.242 237.9C221.013 237.9 220.785 237.652 220.619 237.445C218.336 234.592 216.073 231.738 213.79 228.884C213.541 228.574 213.292 228.264 212.898 227.768C212.462 228.264 212.067 228.76 211.631 229.215C210.739 230.146 209.805 231.035 208.912 231.986C208.684 232.234 208.539 232.627 208.518 232.979C208.477 234.592 208.518 236.204 208.518 237.879H206.193V217.181V217.16Z" fill="white"/>
<path d="M174.374 237.9C173.502 237.9 172.589 238.169 172.028 237.817C171.489 237.486 171.302 236.556 170.991 235.894C170.534 234.943 170.098 233.971 169.704 232.979C169.538 232.586 169.33 232.4 168.874 232.4C165.47 232.4 162.066 232.4 158.661 232.4C158.205 232.4 157.977 232.544 157.81 232.958C157.188 234.426 156.482 235.853 155.88 237.321C155.673 237.797 155.424 237.962 154.925 237.921C154.406 237.879 153.867 237.921 153.244 237.921C153.348 237.673 153.41 237.466 153.493 237.259C156.441 230.745 159.409 224.253 162.356 217.739C162.605 217.16 162.917 216.891 163.539 216.995C163.83 217.036 164.162 216.953 164.452 217.015C164.702 217.077 165.034 217.222 165.137 217.429C168.209 224.129 171.26 230.849 174.291 237.569C174.332 237.652 174.353 237.755 174.415 237.921L174.374 237.9ZM168.5 230.311C166.922 226.775 165.386 223.322 163.747 219.683C162.107 223.301 160.55 226.775 158.973 230.311H168.5Z" fill="white"/>
<path d="M136.431 230.58V237.838H134.086V217.181C134.273 217.16 134.46 217.119 134.667 217.119C137.303 217.119 139.939 217.119 142.596 217.119C143.987 217.119 145.315 217.449 146.54 218.132C149.01 219.517 149.902 221.73 149.695 224.459C149.487 227.147 147.951 228.926 145.502 229.815C144.236 230.27 142.845 230.456 141.496 230.559C139.856 230.683 138.196 230.58 136.452 230.58H136.431ZM136.452 228.409C137.864 228.409 139.213 228.429 140.583 228.409C141.6 228.388 142.617 228.409 143.613 228.181C146.062 227.664 147.411 225.845 147.308 223.446C147.204 221.275 145.668 219.703 143.219 219.393C141.973 219.248 140.686 219.269 139.42 219.248C138.445 219.228 137.469 219.248 136.452 219.248V228.409Z" fill="white"/>
<path d="M71.4857 159.055H61.1699C61.1699 158.393 61.1699 157.773 61.1699 157.153C61.1699 155.105 61.1699 153.058 61.1699 151.011C61.1699 150.536 61.2945 150.349 61.8134 150.349C64.8645 150.349 67.8949 150.349 70.9461 150.349C71.2989 150.349 71.6103 150.349 71.5895 150.846C71.5895 153.534 71.5895 156.201 71.5688 158.889C71.5688 158.931 71.5272 158.972 71.4857 159.055Z" fill="white"/>
<path d="M251.629 159.076H241.271C241.25 158.869 241.209 158.683 241.209 158.497C241.209 156.015 241.209 153.534 241.209 151.073C241.209 150.556 241.334 150.37 241.894 150.37C244.945 150.391 247.975 150.37 251.027 150.37C251.338 150.37 251.649 150.37 251.649 150.825C251.649 153.555 251.649 156.284 251.649 159.096L251.629 159.076Z" fill="white"/>
</svg>
