<svg width="290" height="86" viewBox="0 0 290 86" fill="none" xmlns="http://www.w3.org/2000/svg">
<g clip-path="url(#clip0_497_1862)">
<path fill-rule="evenodd" clip-rule="evenodd" d="M142.301 35.4856V16.6992H151.026C153.103 16.6992 154.765 17.3254 155.804 18.3691C156.635 19.2041 157.05 20.2478 157.05 21.5002C157.05 23.1701 156.219 24.6313 154.557 25.4662C155.804 25.8837 156.635 26.5099 157.258 27.1361C157.881 27.7623 158.089 28.806 158.089 30.0584C158.089 31.7283 157.466 32.9808 156.219 33.8157C154.973 34.6507 153.311 35.0681 151.026 35.0681H142.301V35.4856ZM146.456 24.4225H150.195C152.064 24.4225 153.103 23.7963 153.103 22.3351C153.103 21.7089 152.895 21.2915 152.48 20.874C152.064 20.4565 151.441 20.4565 150.403 20.4565H146.456V24.4225ZM146.456 31.9371H151.233C153.103 31.9371 154.142 31.3109 154.142 29.8497C154.142 28.5973 153.103 27.7623 151.026 27.7623H146.248V31.9371H146.456Z" fill="white"/>
<path fill-rule="evenodd" clip-rule="evenodd" d="M172.215 35.9029C169.722 35.9029 167.645 35.2766 166.191 33.8155C164.736 32.3543 164.113 30.2669 164.113 27.5533V16.9077H168.268V27.5533C168.268 29.0145 168.683 30.2669 169.307 30.8932C169.93 31.7281 170.969 32.1456 172.215 32.1456C173.461 32.1456 174.5 31.7281 175.123 31.1019C175.747 30.2669 176.162 29.2232 176.162 27.7621V16.9077H180.317V27.5533C180.317 30.2669 179.694 32.3543 178.239 33.8155C176.785 35.0679 174.916 35.9029 172.215 35.9029Z" fill="white"/>
<path d="M191.327 16.9077H187.172V35.6941H191.327V16.9077Z" fill="white"/>
<path fill-rule="evenodd" clip-rule="evenodd" d="M197.973 35.4854V16.9077H202.127V31.9368H211.476V35.4854H197.973Z" fill="white"/>
<path fill-rule="evenodd" clip-rule="evenodd" d="M215.84 35.4856V16.6992H223.111C226.019 16.6992 228.304 17.5342 230.174 19.4128C232.043 21.0827 232.874 23.3788 232.874 26.0924C232.874 28.806 232.043 30.8934 230.174 32.772C228.304 34.6507 226.019 35.4856 223.111 35.4856H215.84ZM219.787 31.9371H222.903C224.565 31.9371 226.019 31.5196 227.058 30.4759C228.096 29.4322 228.512 28.1798 228.512 26.3012C228.512 24.6313 228.096 23.3788 227.058 22.3351C226.019 21.2915 224.773 20.6652 222.903 20.6652H219.787V31.9371Z" fill="white"/>
<path d="M243.467 16.9077H239.312V35.6941H243.467V16.9077Z" fill="white"/>
<path fill-rule="evenodd" clip-rule="evenodd" d="M249.906 35.4854V16.9077H253.853L262.578 28.3883V16.9077H266.525V35.4854H262.994L254.061 23.7961V35.4854H249.906Z" fill="white"/>
<path fill-rule="evenodd" clip-rule="evenodd" d="M282.107 35.9029C279.199 35.9029 276.914 35.0679 275.044 33.1893C273.175 31.3106 272.344 29.0145 272.344 26.3009C272.344 23.5873 273.175 21.2912 275.044 19.4126C276.914 17.5339 279.199 16.4902 282.107 16.4902C283.769 16.4902 285.016 16.699 286.262 17.1164C287.301 17.5339 288.547 18.1601 289.378 18.9951L286.885 22.1262C286.054 21.4999 285.431 21.0825 284.6 20.665C283.769 20.4563 282.938 20.2475 281.9 20.2475C280.445 20.2475 279.199 20.8737 278.16 21.9174C277.122 23.1698 276.706 24.4223 276.706 26.0922C276.706 27.7621 277.329 29.2232 278.368 30.2669C279.407 31.3106 280.861 31.9368 282.523 31.9368C283.977 31.9368 285.431 31.5194 286.47 30.8931V28.1796H282.315V24.631H290.417V32.7718C287.716 34.8592 285.016 35.9029 282.107 35.9029Z" fill="white"/>
<path fill-rule="evenodd" clip-rule="evenodd" d="M151.025 69.5095C148.324 69.5095 146.039 68.6746 144.169 66.796C142.3 64.9173 141.469 62.6212 141.469 59.9076C141.469 57.194 142.3 54.8979 144.169 53.0193C146.039 51.1406 148.324 50.3057 151.232 50.3057C152.894 50.3057 154.141 50.5144 155.387 51.1406C156.426 51.7668 157.464 52.393 158.503 53.4367L156.01 56.3591C155.179 55.5241 154.556 55.1066 153.725 54.6892C153.102 54.2717 152.271 54.2717 151.232 54.2717C149.57 54.2717 148.324 54.8979 147.285 55.9416C146.247 56.9853 145.831 58.4464 145.831 60.1163C145.831 61.7862 146.247 63.2474 147.285 64.2911C148.324 65.3348 149.57 65.961 151.232 65.961C152.271 65.961 153.102 65.7523 153.725 65.3348C154.348 64.9173 155.179 64.4998 156.01 63.6649L158.711 66.3785C157.672 67.4222 156.634 68.2571 155.387 68.8833C154.348 69.3008 152.894 69.5095 151.025 69.5095Z" fill="white"/>
<path fill-rule="evenodd" clip-rule="evenodd" d="M179.484 66.796C177.614 68.6746 175.329 69.7183 172.421 69.7183C169.512 69.7183 167.227 68.8833 165.358 67.0047C163.488 65.126 162.449 62.8299 162.449 60.1163C162.449 57.4027 163.488 55.1066 165.358 53.228C167.227 51.3494 169.512 50.3057 172.421 50.3057C175.329 50.3057 177.614 51.1406 179.484 53.0193C181.353 54.8979 182.392 57.194 182.392 59.9076C182.392 62.6212 181.353 64.9173 179.484 66.796ZM168.474 64.0824C169.512 65.1261 170.966 65.7523 172.421 65.7523C174.082 65.7523 175.329 65.1261 176.368 64.0824C177.406 63.0387 178.029 61.5775 178.029 59.9076C178.029 58.2377 177.406 56.7765 176.368 55.7328C175.329 54.6892 173.875 54.0629 172.421 54.0629C170.966 54.0629 169.512 54.6892 168.474 55.7328C167.435 56.7765 166.812 58.2377 166.812 59.9076C166.812 61.5775 167.227 63.0387 168.474 64.0824Z" fill="white"/>
<path d="M190.077 64.9175H185.715V69.0922H190.077V64.9175Z" fill="white"/>
<path d="M113.633 0H106.57V86H113.633V0Z" fill="white"/>
<path d="M14.1261 0H0V86H14.1261V0Z" fill="white"/>
<path fill-rule="evenodd" clip-rule="evenodd" d="M56.5059 49.8883C68.7623 48.2184 78.3182 37.7816 78.3182 25.0485C78.3182 11.2718 67.1004 0 53.3898 0H21.3984V14.1942H53.3898C59.2065 14.1942 64.1921 18.9951 64.1921 25.0485C64.1921 31.1019 59.4142 35.6942 53.3898 35.6942H21.3984V50.0971H42.3798L64.1921 86H78.3182L56.5059 49.8883Z" fill="white"/>
</g>
<defs>
<clipPath id="clip0_497_1862">
<rect width="290" height="86" fill="white"/>
</clipPath>
</defs>
</svg>
