<svg width="100" height="100" viewBox="0 0 100 100" fill="none" xmlns="http://www.w3.org/2000/svg">
<path d="M36.562 93.1699C36.5107 92.9845 36.4234 92.811 36.3051 92.6593C36.1867 92.5077 36.0397 92.3808 35.8723 92.286C35.7048 92.1912 35.5204 92.1304 35.3295 92.1069C35.1385 92.0834 34.9448 92.0978 34.7594 92.1492C34.574 92.2005 34.4006 92.2879 34.2489 92.4062C34.0973 92.5246 33.9705 92.6717 33.8757 92.839C33.7809 93.0064 33.72 93.1909 33.6965 93.3818C33.673 93.5727 33.6874 93.7664 33.7387 93.9518L34.3784 96.2615C34.4639 96.5702 34.6481 96.8423 34.9029 97.0363C35.1577 97.2303 35.4691 97.3355 35.7893 97.3358C36.0152 97.336 36.238 97.2839 36.4404 97.1837C36.6428 97.0835 36.8193 96.9379 36.9561 96.7582C37.0928 96.5785 37.1862 96.3695 37.2288 96.1478C37.2715 95.926 37.2622 95.6973 37.2018 95.4797L36.562 93.1699ZM41.437 92.1492C41.0626 92.0456 40.6624 92.0949 40.3243 92.2863C39.9863 92.4777 39.7381 92.7956 39.6344 93.1699L38.9946 95.4797C38.9342 95.6973 38.925 95.926 38.9676 96.1478C39.0102 96.3695 39.1036 96.5785 39.2404 96.7582C39.3771 96.9379 39.5536 97.0835 39.756 97.1837C39.9584 97.2839 40.1813 97.336 40.4071 97.3358C40.7273 97.3354 41.0387 97.2302 41.2935 97.0362C41.5483 96.8423 41.7325 96.5701 41.818 96.2615L42.4579 93.9518C42.5615 93.5774 42.5122 93.1771 42.3207 92.8391C42.1293 92.501 41.8114 92.2529 41.437 92.1492Z" fill="white"/>
<path d="M95.7457 78.822H93.6026V76.0343C95.2088 75.7554 96.4354 74.355 96.4354 72.6703V66.7295C96.4354 64.8449 94.902 63.3115 93.0174 63.3115H59.2978C59.7904 61.5879 60.0397 59.804 60.0384 58.0114C60.0384 54.9895 59.8246 51.9825 59.4031 49.0735C59.3473 48.689 59.1411 48.3424 58.8298 48.11C58.5185 47.8775 58.1276 47.7782 57.7431 47.8339C57.3587 47.8897 57.0121 48.0959 56.7796 48.4072C56.5472 48.7184 56.4478 49.1093 56.5035 49.4938C56.9052 52.2639 57.1088 55.1295 57.1088 58.0112C57.1088 59.8307 56.8101 61.6108 56.2265 63.3123C54.3512 63.3234 52.8287 64.8514 52.8287 66.7293V69.0406C52.2699 69.6548 51.666 70.2262 51.0219 70.7502V56.8592L53.3996 54.1653C53.6553 53.8738 53.785 53.4928 53.7603 53.1059C53.7356 52.7189 53.5585 52.3576 53.2678 52.101C52.9771 51.8444 52.5965 51.7135 52.2095 51.7371C51.8225 51.7606 51.4606 51.9367 51.2031 52.2266L51.0219 52.4319V44.6022C51.0219 43.7931 50.3662 43.1374 49.557 43.1374C48.7479 43.1374 48.0922 43.7931 48.0922 44.6022V48.37L47.9109 48.1647C47.6535 47.8748 47.2916 47.6987 46.9046 47.6752C46.5175 47.6516 46.137 47.7825 45.8463 48.0391C45.5556 48.2957 45.3784 48.657 45.3537 49.044C45.329 49.4309 45.4588 49.8119 45.7145 50.1034L48.0922 52.7973V58.3957L47.9109 58.1905C47.7838 58.0456 47.6294 57.9272 47.4565 57.8421C47.2835 57.757 47.0955 57.7069 46.9031 57.6946C46.7108 57.6824 46.5179 57.7082 46.3356 57.7706C46.1532 57.833 45.985 57.9307 45.8405 58.0583C45.696 58.1858 45.5781 58.3406 45.4935 58.5138C45.4089 58.687 45.3594 58.8752 45.3477 59.0675C45.336 59.2599 45.3623 59.4527 45.4253 59.6349C45.4882 59.817 45.5865 59.985 45.7145 60.1291L48.0922 62.8229V70.7461C44.2867 67.6475 42.0053 62.9711 42.0053 58.0112C42.0053 47.618 44.6846 37.8036 49.1721 31.7576C49.2955 31.5913 49.4662 31.5665 49.557 31.5665C49.6479 31.5665 49.8186 31.5913 49.942 31.7577C52.1742 34.7648 54.0129 38.7978 55.2594 43.4206C55.4699 44.2018 56.275 44.6647 57.0549 44.4536C57.2406 44.4035 57.4146 44.3174 57.5671 44.2001C57.7195 44.0827 57.8473 43.9365 57.9432 43.7698C58.0392 43.6031 58.1013 43.4191 58.1261 43.2283C58.1509 43.0376 58.1379 42.8438 58.0879 42.6581C57.5531 40.6747 56.9115 38.7892 56.1801 37.0269C57.3842 36.6613 58.6359 36.476 59.8943 36.4771C60.422 36.4782 60.9492 36.5118 61.4728 36.5778C61.4873 36.5796 61.5013 36.5784 61.5156 36.5796C64.6126 36.971 67.4552 38.4853 69.523 40.8485C69.6604 41.0059 69.8299 41.1319 70.0202 41.2182C70.2105 41.3045 70.417 41.349 70.6259 41.3487C70.9073 41.3487 71.1827 41.2676 71.4192 41.1152C71.6557 40.9627 71.8433 40.7454 71.9596 40.4891C72.0758 40.2329 72.1158 39.9486 72.0747 39.6702C72.0336 39.3918 71.9132 39.1312 71.7278 38.9194C69.6648 36.5616 66.9724 34.8917 63.9935 34.089C65.8193 31.5763 68.5658 29.8115 71.6456 29.2443C71.714 29.2316 71.7804 29.2126 71.8454 29.191C71.9054 29.1894 71.9657 29.1855 72.0265 29.1765C72.6319 29.0847 73.2515 29.0384 73.8685 29.0384C77.7544 29.0384 81.3184 30.8267 83.6466 33.945C83.7829 34.128 83.9602 34.2765 84.1642 34.3787C84.3682 34.4809 84.5934 34.5339 84.8215 34.5335C85.0932 34.5333 85.3594 34.4575 85.5905 34.3146C85.8216 34.1718 86.0084 33.9675 86.13 33.7246C86.2516 33.4817 86.3033 33.2098 86.2793 32.9392C86.2553 32.6686 86.1565 32.41 85.994 32.1923C83.1497 28.383 78.6167 26.1089 73.8683 26.1089C73.4013 26.1089 72.9331 26.1332 72.4679 26.1759C72.459 26.0798 72.4542 25.9834 72.4534 25.8869C72.4534 24.0048 73.9845 22.4738 75.8665 22.4738C76.6884 22.474 77.4825 22.771 78.1028 23.3101C78.269 23.4544 78.4655 23.5594 78.6778 23.6174C78.8902 23.6753 79.1128 23.6847 79.3292 23.6448C79.5457 23.6049 79.7503 23.5168 79.928 23.3869C80.1057 23.2571 80.2519 23.0889 80.3557 22.8949C81.9055 19.9945 84.9079 18.193 88.1913 18.193C93.0869 18.193 97.0699 22.1759 97.0699 27.0716C97.0699 27.8808 97.7256 28.5365 98.5348 28.5365C99.3439 28.5365 99.9996 27.8808 99.9996 27.0716C99.9996 20.5605 94.7024 15.2633 88.1913 15.2633C86.3195 15.2617 84.4742 15.7058 82.8081 16.5588C81.142 17.4118 79.7029 18.6493 78.6098 20.1687C77.7537 19.7576 76.8161 19.5442 75.8663 19.5441C72.369 19.5441 69.5236 22.3894 69.5236 25.8869C69.5236 26.1714 69.5423 26.4533 69.5792 26.7318C65.9251 27.8164 62.7705 30.2765 60.8259 33.5775C60.5099 33.5579 60.1984 33.5482 59.8939 33.5482C58.2129 33.5471 56.5428 33.817 54.9476 34.3474C54.1394 32.7577 53.2514 31.3019 52.2941 30.0122C51.6459 29.1386 50.648 28.6376 49.5566 28.6376C48.9397 28.6376 48.3527 28.798 47.8416 29.0951C44.3196 25.0767 39.3131 22.7949 33.9217 22.7949C32.1402 22.7933 30.3678 23.0498 28.6598 23.5564C27.9065 21.4015 26.1573 19.7197 23.9517 19.0646C23.67 13.5186 19.5189 8.91389 14.09 8.01819C13.2779 4.93676 10.44 2.66724 7.16247 2.66724C3.21307 2.66724 0 5.88031 0 9.82971C0 10.6389 0.655661 11.2945 1.46484 11.2945C2.27401 11.2945 2.92968 10.6389 2.92968 9.82971C2.92968 7.49573 4.8285 5.59691 7.16247 5.59691C9.34449 5.59691 11.1962 7.29808 11.3785 9.46994C11.4078 9.81962 11.5617 10.1471 11.8122 10.3929C12.0626 10.6387 12.393 10.7864 12.7431 10.8092C17.3941 11.1111 21.0372 15.0018 21.0372 19.6664C21.0372 19.8232 21.0321 19.9904 21.0212 20.1781C20.9997 20.5548 21.1244 20.9253 21.3692 21.2124C21.6141 21.4994 21.9603 21.6809 22.3357 21.7191C24.3689 21.9256 25.9599 23.5556 26.1185 25.5957C26.1364 25.8248 26.208 26.0464 26.3274 26.2427C26.4468 26.4391 26.6108 26.6046 26.8059 26.7259C27.0011 26.8471 27.2221 26.9208 27.451 26.941C27.6799 26.9611 27.9104 26.9271 28.1237 26.8418C29.9672 26.1019 31.9355 25.7227 33.9219 25.7246C38.594 25.7246 42.9225 27.7605 45.8994 31.3312C41.5481 37.9554 39.0754 47.5637 39.0754 58.0119C39.0754 64.6232 42.51 70.8055 48.092 74.3517V81.8656C41.3922 82.6134 34.7283 83.6533 28.1192 84.9823V76.1648C33.7012 72.6185 37.136 66.4363 37.136 59.825C37.136 48.6614 34.3135 38.456 29.3919 31.8251C28.7434 30.9517 27.7456 30.4507 26.6542 30.4509C25.563 30.4509 24.5653 30.9519 23.9169 31.8251C22.9493 33.1286 22.0409 34.6163 21.2163 36.247C21.1295 36.4187 21.0774 36.6058 21.0629 36.7976C21.0484 36.9894 21.0718 37.1822 21.1319 37.365C21.1919 37.5477 21.2873 37.7169 21.4128 37.8628C21.5382 38.0086 21.6911 38.1284 21.8628 38.2151C22.0345 38.302 22.2216 38.3541 22.4134 38.3686C22.6052 38.3831 22.798 38.3596 22.9808 38.2996C23.1636 38.2396 23.3327 38.1441 23.4786 38.0187C23.6245 37.8933 23.7442 37.7404 23.831 37.5687C24.5804 36.0862 25.4009 34.7413 26.2694 33.5712C26.3927 33.4052 26.5636 33.3804 26.6544 33.3804C26.7454 33.3804 26.9163 33.4052 27.0395 33.5712C31.5272 39.6175 34.2063 49.4319 34.2063 59.825C34.2063 64.785 31.9251 69.4615 28.1192 72.5599V68.6984L30.497 66.0047C30.7527 65.7132 30.8824 65.3323 30.8577 64.9453C30.833 64.5583 30.6559 64.197 30.3652 63.9404C30.0744 63.6838 29.6939 63.5529 29.3068 63.5765C28.9198 63.6 28.5579 63.7761 28.3005 64.066L28.1192 64.2713V58.6727L30.497 55.9789C30.7527 55.6875 30.8824 55.3065 30.8577 54.9196C30.833 54.5326 30.6559 54.1712 30.3652 53.9146C30.0744 53.6581 29.6939 53.5272 29.3068 53.5508C28.9198 53.5743 28.5579 53.7503 28.3005 54.0403L28.1192 54.2456V46.4159C28.1192 45.6067 27.4636 44.9511 26.6544 44.9511C25.8452 44.9511 25.1895 45.6067 25.1895 46.4159V50.1835L25.0085 49.9784C24.751 49.6884 24.3891 49.5124 24.0021 49.4889C23.6151 49.4653 23.2345 49.5962 22.9438 49.8528C22.6531 50.1093 22.476 50.4707 22.4513 50.8577C22.4266 51.2446 22.5563 51.6256 22.812 51.917L25.1895 54.6108V60.2092L25.0085 60.0041C24.751 59.7142 24.3891 59.5381 24.0021 59.5146C23.6151 59.4911 23.2345 59.6219 22.9438 59.8785C22.6531 60.1351 22.476 60.4964 22.4513 60.8834C22.4266 61.2704 22.5563 61.6513 22.812 61.9428L25.1895 64.6365V72.5599C21.3839 69.4615 19.1027 64.7852 19.1027 59.825C19.1027 53.9557 19.9489 48.2063 21.5499 43.1983C21.6682 42.8283 21.6347 42.4264 21.4568 42.0811C21.2788 41.7358 20.9709 41.4753 20.6009 41.3569C20.4177 41.2983 20.2247 41.2763 20.033 41.2922C19.8412 41.3082 19.6545 41.3617 19.4835 41.4499C19.3125 41.538 19.1606 41.659 19.0363 41.8059C18.9121 41.9528 18.818 42.1227 18.7595 42.3059C18.3286 43.6538 17.9501 45.0516 17.6241 46.488C16.4263 43.3073 14.9388 40.4921 13.2185 38.1737C12.5699 37.3011 11.5722 36.8007 10.4814 36.8007C9.39059 36.8007 8.39313 37.3013 7.74352 38.1745C2.82245 44.8044 0 55.0098 0 66.1744C0 72.7841 3.43456 78.9664 9.01657 82.5142V89.6774C6.33065 90.4588 3.65925 91.2893 1.00371 92.1684C0.673552 92.2782 0.393221 92.5018 0.212877 92.7994C0.0325327 93.0969 -0.0360558 93.4489 0.0193845 93.7924C0.0748248 94.1358 0.250676 94.4484 0.515471 94.674C0.780267 94.8997 1.11673 95.0238 1.46464 95.0241C1.61738 95.0241 1.77284 95.0001 1.92597 94.9493C4.79504 93.9978 7.68292 93.104 10.5878 92.2684C10.785 92.2545 10.9773 92.2005 11.1529 92.1099C15.7933 90.787 20.4744 89.6117 25.1894 88.5856V90.1235C25.1894 90.9327 25.845 91.5884 26.6542 91.5884C27.4634 91.5884 28.119 90.9327 28.119 90.1235V87.9689C35.0733 86.5513 42.0898 85.4581 49.1457 84.6929C49.2824 84.6778 49.4163 84.6436 49.5434 84.5911C50.1553 86.1909 51.7055 87.3304 53.5178 87.3304H54.5748V92.563H53.6582C52.849 92.563 52.1933 93.2186 52.1933 94.0278C52.1933 94.837 52.849 95.4927 53.6582 95.4927H95.6051C96.4143 95.4927 97.0699 94.837 97.0699 94.0278C97.0699 93.2186 96.4143 92.563 95.6051 92.563H94.6885V87.3304H95.7455C98.0912 87.3304 99.9996 85.422 99.9996 83.0763C99.9996 80.7306 98.0914 78.822 95.7457 78.822ZM2.92987 66.174C2.92987 55.7801 5.60896 45.9655 10.0955 39.9212C10.2193 39.7546 10.3906 39.73 10.4816 39.73C10.5726 39.73 10.7439 39.7548 10.867 39.9204C13.3421 43.2561 15.3011 47.7745 16.5423 52.9967C16.2958 55.2643 16.1726 57.5437 16.1732 59.8246C16.1732 62.641 16.7968 65.3797 17.9435 67.8703C17.496 72.216 15.3183 76.1779 11.9464 78.9144V75.0476L14.3242 72.3539C14.5799 72.0624 14.7096 71.6814 14.6849 71.2945C14.6602 70.9075 14.4831 70.5462 14.1924 70.2896C13.9017 70.033 13.5211 69.9021 13.1341 69.9257C12.747 69.9492 12.3851 70.1253 12.1277 70.4152L11.9464 70.6205V65.0221L14.3242 62.3281C14.5799 62.0367 14.7096 61.6557 14.6849 61.2688C14.6602 60.8818 14.4831 60.5204 14.1924 60.2638C13.9017 60.0073 13.5211 59.8764 13.1341 59.8999C12.747 59.9235 12.3851 60.0995 12.1277 60.3895L11.9464 60.5947V52.7651C11.9464 51.9559 11.2908 51.3002 10.4816 51.3002C9.67242 51.3002 9.01676 51.9559 9.01676 52.7651V56.5326L8.83571 56.3276C8.57826 56.0376 8.21636 55.8616 7.82933 55.8381C7.44231 55.8145 7.06173 55.9454 6.77103 56.2019C6.48033 56.4585 6.30321 56.8199 6.2785 57.2069C6.2538 57.5938 6.38352 57.9748 6.63923 58.2662L9.01676 60.9602V66.5584L8.83571 66.3533C8.57826 66.0634 8.21636 65.8873 7.82933 65.8638C7.44231 65.8402 7.06173 65.9711 6.77103 66.2277C6.48033 66.4843 6.30321 66.8456 6.2785 67.2326C6.2538 67.6196 6.38352 68.0005 6.63923 68.292L9.01676 70.9857V78.9087C5.21111 75.8086 2.92987 71.1324 2.92987 66.174ZM11.9464 88.8442V82.5154C15.9679 79.9632 18.8786 76.0636 20.1872 71.5877C21.5739 73.3942 23.2671 74.9432 25.1895 76.1642V85.5909C20.7442 86.545 16.3279 87.6299 11.9464 88.8442ZM88.3868 78.822V76.0882H90.6729V78.822H88.3868ZM55.7584 66.7293C55.7584 66.46 55.9773 66.241 56.2467 66.241H93.0176C93.2869 66.241 93.5059 66.46 93.5059 66.7293V72.6701C93.5059 72.9394 93.2869 73.1584 93.0176 73.1584H82.7493C81.9401 73.1584 81.2844 73.814 81.2844 74.6232C81.2844 75.4324 81.9401 76.088 82.7493 76.088H85.4573V78.8218H63.807V76.088H76.3702C77.1794 76.088 77.835 75.4324 77.835 74.6232C77.835 73.814 77.1794 73.1584 76.3702 73.1584H56.2467C56.1172 73.1583 55.993 73.1068 55.9015 73.0152C55.81 72.9237 55.7585 72.7996 55.7584 72.6701V66.7293ZM58.5912 76.088H60.8773V78.8218H58.5912V76.088ZM52.8492 73.0381C53.0125 74.5558 54.1736 75.7761 55.6615 76.0343V78.822H53.5182C52.621 78.8213 51.7468 79.1058 51.0219 79.6345V74.3533C51.6557 73.9503 52.2659 73.5112 52.8492 73.0381ZM60.3767 87.33V92.5442H57.5049V87.33H60.3767ZM63.3064 92.5626V87.33H85.9575V92.5626H63.3064ZM91.759 92.5442H88.8872V87.33H91.759V92.5442ZM95.7457 84.4003H53.5182C53.167 84.3999 52.8304 84.2602 52.5821 84.0119C52.3338 83.7637 52.1942 83.427 52.1937 83.0759C52.1942 82.7248 52.3339 82.3882 52.5822 82.14C52.8305 81.8918 53.1671 81.7521 53.5182 81.7517H95.7457C96.0968 81.7521 96.4334 81.8918 96.6817 82.14C96.93 82.3882 97.0697 82.7248 97.0701 83.0759C97.0697 83.427 96.93 83.7637 96.6818 84.0119C96.4335 84.2602 96.0968 84.3999 95.7457 84.4003Z" fill="white"/>
</svg>
