<svg width="100" height="100" viewBox="0 0 100 100" fill="none" xmlns="http://www.w3.org/2000/svg">
<g clip-path="url(#clip0_474_2507)">
<path d="M49.9629 12.2051V88.5195" stroke="white" stroke-width="1.2" stroke-miterlimit="10" stroke-linecap="round" stroke-linejoin="round"/>
<mask id="mask0_474_2507" style="mask-type:luminance" maskUnits="userSpaceOnUse" x="0" y="0" width="100" height="100">
<path d="M99.3997 99.4V0.600296H0.6V99.4H99.3997Z" fill="white" stroke="white" stroke-width="1.2"/>
</mask>
<g mask="url(#mask0_474_2507)">
<path d="M55.2981 4.02088L53.0278 2.42362C52.1413 1.7999 51.0838 1.46517 49.9999 1.46517C48.916 1.46517 47.8585 1.7999 46.972 2.42362L44.7017 4.02088C35.8913 10.2197 25.5427 13.8699 14.793 14.5705C12.0254 14.7509 9.87305 17.0482 9.87305 19.8214V33.5825C9.87305 56.4932 20.5713 78.0898 38.7972 91.9722L45.3563 96.9681C48.0995 99.0575 51.9003 99.0575 54.6434 96.9681L61.2026 91.9722C79.4285 78.0898 90.1267 56.4932 90.1267 33.5825V19.8214C90.1267 17.0482 87.9744 14.7509 85.2068 14.5705C74.4571 13.8699 64.1085 10.2197 55.2981 4.02088Z" stroke="white" stroke-width="3" stroke-miterlimit="10" stroke-linecap="round" stroke-linejoin="round"/>
<path d="M18.8457 31.9961V24.6725C18.8457 23.7319 19.5834 22.9616 20.5227 22.9108C32.7398 22.2518 45.5439 14.6921 49.0601 12.4731C49.3413 12.2953 49.6672 12.201 49.9999 12.201C50.3326 12.201 50.6585 12.2953 50.9397 12.4731C54.4561 14.6921 67.2602 22.2518 79.4772 22.9108C80.4164 22.9616 81.1543 23.7319 81.1543 24.6725V33.3311C81.1543 43.1982 78.8391 53.0873 74.4592 61.9288C72.3442 66.1988 69.7428 70.2335 66.7342 73.938" stroke="white" stroke-width="3" stroke-miterlimit="10" stroke-linecap="round" stroke-linejoin="round"/>
<path d="M61.9924 79.1728C60.0354 81.1097 57.9554 82.9184 55.7655 84.5875L51.0692 88.1646C50.7618 88.3986 50.3861 88.5254 49.9997 88.5254C49.6133 88.5254 49.2376 88.3986 48.9302 88.1646L44.2339 84.5875C36.3843 78.6086 29.9203 70.775 25.5404 61.9332C21.9982 54.7827 19.8064 46.9469 19.0977 38.9919" stroke="white" stroke-width="3" stroke-miterlimit="10" stroke-linecap="round" stroke-linejoin="round"/>
</g>
</g>
<defs>
<clipPath id="clip0_474_2507">
<rect width="100" height="100" fill="white"/>
</clipPath>
</defs>
</svg>
