<svg width="100" height="100" viewBox="0 0 100 100" fill="none" xmlns="http://www.w3.org/2000/svg">
<path d="M94.5957 38.7559L87.0332 36.2949C86.1324 32.7139 84.7103 29.2847 82.8125 26.1172L86.4277 19.0293C86.7344 18.4258 86.6191 17.6934 86.1406 17.2148L78.4512 9.53125C78.2177 9.2981 77.9164 9.14477 77.5905 9.0932C77.2646 9.04163 76.9308 9.09446 76.6367 9.24414L69.5508 12.8574C66.3837 10.9623 62.956 9.54159 59.377 8.64063L56.918 1.08008C56.8161 0.766515 56.6176 0.493201 56.351 0.299213C56.0844 0.105226 55.7633 0.000496591 55.4336 0H44.5664C43.8906 0 43.291 0.435547 43.082 1.07813L40.6211 8.64063C37.0414 9.54252 33.6126 10.9625 30.4434 12.8555L23.3555 9.24414C23.0617 9.09447 22.7282 9.04164 22.4026 9.09322C22.077 9.14479 21.7761 9.29813 21.543 9.53125L13.8594 17.2168C13.6263 17.4499 13.4731 17.7508 13.4215 18.0764C13.3699 18.402 13.4227 18.7355 13.5723 19.0293L17.1836 26.1172C15.2852 29.2988 13.8691 32.7148 12.9688 36.2949L5.40625 38.7559C5.09291 38.8579 4.81987 39.0564 4.62621 39.323C4.43256 39.5897 4.32822 39.9107 4.32812 40.2402V51.1074C4.32812 51.7832 4.76367 52.3828 5.4082 52.5918L12.9688 55.0508C13.8711 58.6289 15.2852 62.043 17.1855 65.2246L13.5742 72.3105C13.4241 72.6045 13.371 72.9385 13.4226 73.2645C13.4742 73.5905 13.6278 73.8918 13.8613 74.125L21.5449 81.8145C21.7782 82.048 22.0794 82.2016 22.4054 82.2532C22.7315 82.3048 23.0654 82.2517 23.3594 82.1016L30.4473 78.4902C32.0547 79.4473 33.7266 80.2852 35.4355 80.9902C35.4414 81.0586 35.4434 81.1289 35.4492 81.1992C35.459 81.3399 35.4688 81.4785 35.4746 81.6191C35.4844 81.8672 35.4902 82.1191 35.4902 82.3731V87.4492C35.4902 87.9434 35.5215 88.4316 35.5781 88.9121C35.582 88.9863 35.5918 89.0605 35.6055 89.1309C36.4297 95.2559 41.6875 99.9961 48.0352 99.9961H51.9707C58.3184 99.9961 63.5762 95.2559 64.4004 89.1309C64.416 89.0605 64.4238 88.9863 64.4277 88.9121C64.4844 88.4316 64.5156 87.9453 64.5156 87.4492V82.3731C64.5156 82.1191 64.5215 81.8691 64.5312 81.6211C64.5391 81.4102 64.5527 81.1992 64.5703 80.9902C66.291 80.2793 67.9609 79.4414 69.5547 78.4863L76.6406 82.1016C76.8652 82.2168 77.1094 82.2715 77.3496 82.2715C77.7559 82.2715 78.1543 82.1133 78.4551 81.8125L82.2949 77.9668L86.1426 74.125C86.3761 73.8918 86.5297 73.5905 86.5813 73.2645C86.6329 72.9385 86.5798 72.6045 86.4297 72.3105L82.8125 65.2246C84.7168 62.0371 86.1328 58.6231 87.0332 55.0527L94.5938 52.5938C94.9073 52.4918 95.1806 52.2934 95.3746 52.0268C95.5686 51.7602 95.6733 51.4391 95.6738 51.1094V40.2422C95.6719 39.5645 95.2383 38.9648 94.5957 38.7559ZM38.6094 87.25V82.3731C38.6094 82.0938 38.6035 81.8145 38.5918 81.5371C38.582 81.293 38.5664 81.0527 38.5508 80.8125C38.5488 80.791 38.5488 80.7676 38.5469 80.7461H61.4531C61.4531 80.7578 61.4512 80.7715 61.4512 80.7832C61.4336 81.0332 61.418 81.2852 61.4082 81.5391C61.3965 81.8164 61.3906 82.0957 61.3906 82.375V87.252H38.6094V87.25ZM49.998 53.0781C48.8809 53.0781 47.9727 52.166 47.9727 51.0469C47.9727 49.9277 48.8809 49.0156 49.998 49.0156C51.1191 49.0156 52.0293 49.9277 52.0293 51.0469C52.0293 52.166 51.1172 53.0781 49.998 53.0781ZM61.9375 77.6211H57.959V67.0137H61.5801C62.4434 67.0137 63.1406 66.3145 63.1406 65.4531V60.4668C65.2227 59.8047 66.7344 57.8555 66.7344 55.5606C66.7344 52.7188 64.4219 50.4062 61.5801 50.4062C58.7383 50.4062 56.4258 52.7188 56.4258 55.5606C56.4258 57.8555 57.9375 59.8047 60.0195 60.4668V63.8926H56.3984C55.5352 63.8926 54.8379 64.5918 54.8379 65.4531V77.6231H51.5605V55.959C53.6426 55.2969 55.1543 53.3457 55.1543 51.0469C55.1543 48.2051 52.8418 45.8926 50 45.8926C47.1602 45.8926 44.8516 48.2051 44.8516 51.0469C44.8516 53.3438 46.3613 55.2949 48.4395 55.959V77.6231H45.1621V65.4531C45.1621 64.5899 44.4629 63.8926 43.6016 63.8926H39.9863V60.4668C42.0645 59.8047 43.5742 57.8555 43.5742 55.5606C43.5742 52.7188 41.2637 50.4062 38.4258 50.4062C35.584 50.4062 33.2715 52.7188 33.2715 55.5606C33.2715 57.8555 34.7832 59.8047 36.8652 60.4668V65.4531C36.8652 66.3164 37.5645 67.0137 38.4258 67.0137H42.041V77.6211H38.0664C37.3672 74.7188 35.9961 72.0801 33.916 69.6426C33.1348 68.7285 32.3555 67.8574 31.6016 67.0137C26.8574 61.7109 23.1113 57.5234 23.1113 47.7734C23.1113 32.9453 35.1738 20.8828 50.002 20.8828C64.832 20.8828 76.8984 32.9453 76.8984 47.7734C76.8984 57.5234 73.1523 61.7109 68.4082 67.0137C67.6543 67.8555 66.875 68.7266 66.0957 69.6406C64.0078 72.0762 62.6348 74.7148 61.9375 77.6211ZM61.5801 57.5859C60.459 57.5859 59.5488 56.6777 59.5488 55.5606C59.5488 54.4395 60.4609 53.5293 61.5801 53.5293C62.6992 53.5293 63.6113 54.4414 63.6113 55.5606C63.6113 56.6777 62.6992 57.5859 61.5801 57.5859ZM38.4199 57.5859C37.2988 57.5859 36.3887 56.6777 36.3887 55.5606C36.3887 54.4395 37.3008 53.5293 38.4199 53.5293C39.5371 53.5293 40.4473 54.4414 40.4473 55.5606C40.4473 56.6777 39.5371 57.5859 38.4199 57.5859ZM51.9687 96.8731H48.0332C43.8574 96.8731 40.3105 94.1426 39.0762 90.3731H60.9258C59.6914 94.1406 56.1445 96.8731 51.9687 96.8731ZM92.5508 49.9746L85.2344 52.3535C84.7109 52.5234 84.3164 52.957 84.1953 53.4922C83.3262 57.3223 81.8125 60.9648 79.7012 64.3242C79.5573 64.5532 79.4753 64.8156 79.4634 65.0857C79.4514 65.3558 79.5098 65.6245 79.6328 65.8652L83.1309 72.7207L77.0449 78.8066L70.1895 75.3086C69.9481 75.1859 69.6791 75.1279 69.4087 75.1402C69.1383 75.1525 68.8756 75.2348 68.6465 75.3789C67.5664 76.0606 66.4434 76.6816 65.291 77.2422C65.9375 75.2422 66.9902 73.3965 68.4648 71.6719C69.2227 70.7852 69.9883 69.9277 70.7305 69.0977C75.5059 63.7598 80.0156 58.7168 80.0156 47.7754C80.0156 31.2266 66.5488 17.7617 49.9961 17.7617C33.4473 17.7617 19.9824 31.2246 19.9824 47.7754C19.9824 58.7168 24.4922 63.7598 29.2676 69.0977C30.0098 69.9277 30.7754 70.7832 31.5332 71.6719C33.0078 73.3984 34.0586 75.2441 34.7051 77.2441C33.551 76.684 32.4277 76.0627 31.3398 75.3828C31.1113 75.2399 30.8496 75.1585 30.5803 75.1465C30.311 75.1345 30.0431 75.1924 29.8027 75.3145L22.9473 78.8066L16.8672 72.7227L20.3613 65.8633C20.4836 65.6225 20.5414 65.3542 20.5291 65.0845C20.5167 64.8148 20.4347 64.5528 20.291 64.3242C18.1855 60.9766 16.6738 57.332 15.8027 53.4922C15.743 53.2286 15.6159 52.9851 15.4337 52.7855C15.2516 52.5859 15.0207 52.437 14.7637 52.3535L7.44727 49.9746V41.375L14.7598 38.9981C15.0173 38.9145 15.2486 38.7654 15.4311 38.5654C15.6136 38.3655 15.741 38.1215 15.8008 37.8574C16.6719 34.0156 18.1816 30.3711 20.2891 27.0215C20.4328 26.7929 20.5148 26.531 20.5271 26.2612C20.5394 25.9915 20.4816 25.7232 20.3594 25.4824L16.8691 18.623L22.9492 12.543L29.8066 16.0371C30.0473 16.1598 30.3156 16.2179 30.5855 16.2056C30.8553 16.1932 31.1173 16.111 31.3457 15.9668C34.6953 13.8594 38.3398 12.3496 42.1816 11.4785C42.4457 11.4188 42.6897 11.2914 42.8896 11.1089C43.0896 10.9264 43.2387 10.695 43.3223 10.4375L45.6992 3.12305H54.2988L56.6777 10.4395C56.8477 10.9609 57.2812 11.3574 57.8164 11.4785C61.6641 12.3535 65.3086 13.8633 68.6465 15.9668C68.8749 16.111 69.1369 16.1932 69.4067 16.2056C69.6765 16.2179 69.9449 16.1598 70.1855 16.0371L77.0449 12.543L83.1289 18.623L79.6309 25.4766C79.5076 25.7177 79.4493 25.9868 79.4616 26.2574C79.474 26.5279 79.5565 26.7906 79.7012 27.0195C81.8105 30.3633 83.3223 34.0098 84.1934 37.8535C84.2531 38.1176 84.3805 38.3616 84.563 38.5615C84.7455 38.7615 84.9769 38.9106 85.2344 38.9941L92.5469 41.3711V49.9746H92.5508Z" fill="white"/>
</svg>
