<svg width="113" height="77" viewBox="0 0 113 77" fill="none" xmlns="http://www.w3.org/2000/svg">
<path d="M67.7038 0C67.9586 0.0522034 68.2199 0.0978814 68.4747 0.150085C69.0823 0.280593 69.2849 0.528559 69.1411 1.13542C68.9451 1.93153 68.7165 2.7211 68.4159 3.48458C67.3902 6.14042 66.2665 8.75712 64.8422 11.2303C63.6401 13.3314 62.1179 15.2042 60.5629 17.0509C58.6748 19.2826 56.6168 21.3447 54.3106 23.1457C51.73 25.1555 48.9664 26.8717 46.0591 28.3595C43.387 29.7364 40.6103 30.8653 37.7292 31.7331C36.8537 31.9942 36.3441 32.5423 36.1612 33.4689C35.7953 35.3025 35.3249 37.1231 34.9656 38.9568C34.6781 40.425 34.456 41.9128 34.2796 43.4006C34.0836 45.045 33.9529 46.7025 33.8288 48.3599C33.7635 49.2604 33.7177 50.1609 33.7504 51.0614C33.8223 53.2605 33.9007 55.4661 34.0575 57.6586C34.358 61.8806 35.0636 66.0503 35.8737 70.2005C36.024 70.977 36.1873 71.747 36.3441 72.5236C36.3572 72.5823 36.3637 72.6475 36.3768 72.7454C36.0632 72.7715 35.7561 72.8042 35.449 72.8303C35.1354 72.8564 34.8218 72.8564 34.5148 72.902C34.3253 72.9281 34.2665 72.8694 34.2273 72.6932C33.8615 71.0814 33.4433 69.4827 33.1297 67.8644C32.7312 65.8415 32.3784 63.8056 32.0779 61.7631C31.8557 60.2558 31.7251 58.7353 31.6271 57.2149C31.516 55.5183 31.4507 53.8217 31.4441 52.1186C31.4311 49.5214 31.5813 46.9374 31.8557 44.3533C32.4045 39.1982 33.4041 34.1345 34.9852 29.2013C36.6904 23.87 39.1403 18.8976 42.42 14.3494C45.4253 10.1797 49.2277 6.9039 53.6834 4.35898C56.9304 2.50576 60.3735 1.16805 64.0256 0.365424C64.7508 0.208814 65.4956 0.150085 66.2273 0.045678C66.3057 0.0326271 66.3775 0.0130508 66.4559 0C66.8741 0 67.2857 0 67.7038 0ZM65.9921 3.37364C66.0051 2.7472 65.8092 2.53839 65.378 2.53839C65.2212 2.53839 65.0578 2.53839 64.901 2.58407C64.4698 2.70153 64.0386 2.81898 63.614 2.96254C58.9035 4.50907 54.5981 6.82559 50.6258 9.76203C49.3388 10.7147 48.0583 11.674 46.9737 12.8551C42.9492 17.2336 39.9243 22.2256 37.9382 27.8375C37.8664 28.0397 37.8206 28.2551 37.788 28.4639C37.7161 28.9794 38.0035 29.2665 38.5197 29.1817C38.7614 29.1425 39.0031 29.0708 39.2318 28.9794C43.1975 27.4198 46.9084 25.3904 50.3972 22.9564C51.9651 21.8602 53.5135 20.7378 54.8659 19.387C58.1914 16.0591 61.0529 12.3722 63.4702 8.33949C64.2542 7.03441 64.9533 5.67712 65.6589 4.33288C65.8418 3.98703 65.9202 3.58898 65.9921 3.38669V3.37364Z" fill="white"/>
<path d="M8.89282 54.1152C9.35015 53.3843 9.78788 52.6796 10.2256 51.9749C11.0031 50.7285 11.774 49.4821 12.558 48.2358C12.6102 48.1575 12.7213 48.0661 12.8062 48.0661C13.8646 48.0531 14.9165 48.0596 15.9749 48.0661C15.9945 48.0661 16.0206 48.0727 16.0533 48.0857V62.3633H12.9238V53.1494C12.9238 53.1494 12.8846 53.1364 12.8716 53.1299C11.5453 55.1397 10.2125 57.156 8.85362 59.2181C7.50776 57.1821 6.18804 55.1854 4.86832 53.1886C4.84872 53.1886 4.82912 53.2016 4.81606 53.2082V62.3764H1.75195V48.0792H1.96755C2.95407 48.0792 3.93407 48.0792 4.92059 48.0792C5.07739 48.0792 5.16232 48.1249 5.24072 48.2554C6.38404 50.1086 7.54043 51.9553 8.69029 53.8085C8.75562 53.9064 8.81442 54.0108 8.89935 54.1348L8.89282 54.1152Z" fill="white"/>
<path d="M94.8438 51.4335H97.9275V52.9605C98.0712 52.7974 98.1757 52.6864 98.2802 52.569C99.6588 51.0224 101.566 50.9376 102.952 51.6032C103.533 51.8838 103.938 52.3471 104.35 52.9866C104.389 52.9083 104.408 52.8104 104.461 52.7452C105.238 51.9099 106.172 51.3618 107.322 51.2508C108.544 51.1334 109.687 51.303 110.595 52.2362C111.144 52.8039 111.406 53.5086 111.51 54.2721C111.556 54.6375 111.575 55.0029 111.575 55.3684C111.575 57.587 111.575 59.8057 111.575 62.0308V62.3571H108.459V62.0896C108.459 60.1319 108.466 58.1743 108.453 56.2232C108.453 55.8643 108.394 55.4858 108.296 55.14C108.126 54.5723 107.734 54.2134 107.133 54.0829C105.885 53.8153 104.931 54.494 104.787 55.7599C104.761 55.9752 104.748 56.1906 104.748 56.4059C104.748 58.2918 104.748 60.1776 104.748 62.0569C104.748 62.1548 104.748 62.2462 104.748 62.3571H101.638C101.638 62.2723 101.638 62.1809 101.638 62.0896C101.638 60.0993 101.651 58.1156 101.625 56.1253C101.625 55.7273 101.521 55.3162 101.39 54.9442C101.22 54.4679 100.835 54.1938 100.338 54.0894C98.9728 53.7892 97.9667 54.5853 97.9405 56.0405C97.9079 57.5413 97.9275 59.0422 97.9275 60.543C97.9275 61.1434 97.9275 61.7372 97.9275 62.3571H94.8438V51.427V51.4335Z" fill="white"/>
<path d="M47.9138 57.9785H40.283C40.4528 58.7812 40.8122 59.4206 41.5243 59.7926C42.5696 60.3342 43.628 60.2363 44.6472 59.7078C44.9934 59.5316 45.3005 59.2771 45.6533 59.0422C46.2152 59.5381 46.8097 60.0601 47.4042 60.5887C46.5745 61.6067 45.5422 62.2592 44.2683 62.5006C42.746 62.7812 41.2695 62.6768 39.904 61.8807C38.323 60.9606 37.4345 59.5642 37.2319 57.7436C37.0882 56.4255 37.2515 55.1661 37.9048 53.9915C39.009 52.0012 41.0735 50.9767 43.334 51.2508C44.4643 51.3878 45.4769 51.7598 46.2805 52.5885C47.1233 53.4629 47.6133 54.5266 47.8289 55.7142C47.9661 56.4516 47.9857 57.202 47.9073 57.9785H47.9138ZM40.2699 56.0339H44.902C44.9281 54.7941 43.8567 53.7109 42.6284 53.7109C41.3936 53.7109 40.2503 54.8267 40.2764 56.0339H40.2699Z" fill="white"/>
<path d="M92.0022 62.37H88.9185V60.9736C88.7094 61.1563 88.4742 61.3586 88.2456 61.5609C87.063 62.631 85.6976 62.8464 84.2276 62.3439C82.9275 61.9002 82.2872 60.8692 82.0585 59.5641C81.9932 59.1921 81.9736 58.8006 81.9736 58.4221C81.9671 56.197 81.9736 53.9653 81.9736 51.7401C81.9736 51.6422 81.9736 51.5509 81.9736 51.4399H85.0769V51.714C85.0769 53.6064 85.0769 55.4988 85.0769 57.3911C85.0769 57.7435 85.1161 58.1155 85.2076 58.4548C85.4428 59.3422 86.0765 59.786 87.0238 59.7664C87.9385 59.7468 88.6049 59.2443 88.8139 58.396C88.8858 58.1024 88.9185 57.7957 88.9185 57.4955C88.925 55.5705 88.9185 53.6455 88.9185 51.7205V51.4399H92.0022V62.37Z" fill="white"/>
<path d="M50.3125 51.4334H53.3897V52.9669C53.5334 52.8038 53.6379 52.6863 53.7425 52.5754C54.8205 51.3943 56.1402 50.9897 57.6886 51.3355C59.0606 51.6422 60.0209 52.732 60.2561 54.2263C60.3149 54.5852 60.3411 54.9571 60.3411 55.3226C60.3476 57.5738 60.3411 59.8251 60.3411 62.0764C60.3411 62.1677 60.3411 62.2656 60.3411 62.37H57.2378C57.2378 62.2721 57.2378 62.1808 57.2378 62.0894C57.2378 60.1905 57.2378 58.2916 57.2378 56.3927C57.2378 56.0926 57.2051 55.7859 57.1463 55.4922C56.9634 54.5917 56.3231 54.0566 55.4607 54.0501C54.4089 54.0371 53.7163 54.5134 53.4942 55.44C53.4289 55.7271 53.3962 56.0208 53.3962 56.3144C53.3897 58.2329 53.3962 60.1449 53.3962 62.0633V62.37H50.3125V51.4399V51.4334Z" fill="white"/>
<path d="M73.1608 62.3698H70.0575C70.0575 62.2785 70.0575 62.1871 70.0575 62.0958C70.0575 60.1969 70.0575 58.298 70.0575 56.3991C70.0575 56.0989 70.0313 55.7922 69.966 55.4986C69.7831 54.5981 69.1493 54.063 68.287 54.0499C67.222 54.0369 66.536 54.5197 66.3139 55.4594C66.2486 55.7465 66.2159 56.0402 66.2159 56.3338C66.2094 58.2523 66.2159 60.1642 66.2159 62.0827V62.3764H63.1191V51.4398H66.2028V52.9732C66.3008 52.8623 66.3596 52.8036 66.4119 52.7448C67.0195 52.0466 67.7251 51.492 68.6528 51.3158C70.6585 50.9308 72.6773 51.7856 73.0758 54.2783C73.1346 54.6307 73.1542 54.9896 73.1608 55.3485C73.1673 57.5932 73.1608 59.838 73.1608 62.0762C73.1608 62.1675 73.1608 62.2654 73.1608 62.3698Z" fill="white"/>
<path d="M28.6221 62.3702H25.5449V47.4727H28.6221V62.3702Z" fill="white"/>
<path d="M22.4411 51.4399V62.3635H19.3574V51.4399H22.4411Z" fill="white"/>
<path d="M79.0987 62.37H76.0215V51.4399H79.0987V62.37Z" fill="white"/>
<path d="M60.5628 72.4256C61.2226 73.3066 61.876 74.1679 62.5554 75.0815C62.2484 75.0815 61.9805 75.0945 61.7126 75.075C61.6473 75.075 61.5689 74.9836 61.5232 74.9184C60.9678 74.1875 60.4191 73.4501 59.8768 72.7128C59.7788 72.5823 59.6808 72.53 59.5175 72.5366C58.9752 72.5431 58.4329 72.5366 57.8645 72.5366V75.0684H57.1328V68.5365C57.2112 68.5365 57.2831 68.5234 57.3484 68.5234C58.2696 68.5234 59.1908 68.5234 60.1055 68.5234C60.5758 68.5234 61.0266 68.6278 61.4317 68.8758C62.1046 69.2804 62.366 69.9003 62.3137 70.6638C62.268 71.3685 61.8956 71.8579 61.2749 72.1581C61.0528 72.269 60.8176 72.3343 60.5562 72.4256H60.5628ZM57.8711 71.8318C58.7008 71.8318 59.5109 71.871 60.308 71.8188C60.8568 71.7796 61.3141 71.4925 61.5036 70.9313C61.7845 70.1091 61.2945 69.3587 60.3798 69.2478C59.8115 69.1825 59.23 69.2086 58.6616 69.1956C58.4003 69.1956 58.1389 69.1956 57.8645 69.1956V71.8383L57.8711 71.8318Z" fill="white"/>
<path d="M64.9023 68.5296H65.6341V72.3144C65.9803 72.0012 66.3462 71.688 66.6859 71.3421C67.5418 70.4677 68.3846 69.5868 69.2274 68.7058C69.3515 68.5753 69.4756 68.5101 69.6651 68.5231C69.8742 68.5362 70.0898 68.5231 70.3642 68.5231C69.4038 69.5019 68.4891 70.4351 67.5549 71.3878C68.5218 72.608 69.4887 73.8218 70.4883 75.0812C70.1747 75.0812 69.9068 75.0942 69.639 75.0746C69.5671 75.0746 69.4952 74.9963 69.443 74.9311C68.7243 74.0306 68.0122 73.1301 67.2935 72.2296C67.2151 72.1317 67.1367 72.0338 67.0126 71.8772C66.8754 72.0338 66.7513 72.1904 66.6141 72.334C66.3331 72.6276 66.0391 72.9082 65.7582 73.2084C65.6863 73.2867 65.6406 73.4107 65.6341 73.5216C65.621 74.0306 65.6341 74.5396 65.6341 75.0681H64.9023V68.5362V68.5296Z" fill="white"/>
<path d="M54.8872 75.0748C54.6128 75.0748 54.3253 75.1596 54.1489 75.0487C53.9791 74.9442 53.9203 74.6506 53.8223 74.4418C53.6785 74.1416 53.5413 73.8349 53.4172 73.5217C53.3649 73.3977 53.2996 73.339 53.1559 73.339C52.0844 73.339 51.013 73.339 49.9415 73.339C49.7978 73.339 49.7259 73.3847 49.6736 73.5152C49.4776 73.9785 49.2555 74.4287 49.0661 74.892C49.0007 75.0421 48.9223 75.0943 48.7655 75.0813C48.6022 75.0682 48.4323 75.0813 48.2363 75.0813C48.269 75.003 48.2886 74.9377 48.3147 74.8725C49.2424 72.817 50.1767 70.768 51.1044 68.7125C51.1828 68.5298 51.2808 68.4449 51.4768 68.4776C51.5683 68.4906 51.6728 68.4645 51.7643 68.4841C51.8427 68.5037 51.9472 68.5493 51.9799 68.6146C52.9468 70.7288 53.9072 72.8496 54.8611 74.9703C54.8741 74.9964 54.8807 75.0291 54.9003 75.0813L54.8872 75.0748ZM53.0383 72.6799C52.5418 71.5641 52.0583 70.4743 51.5422 69.3259C51.026 70.4678 50.536 71.5641 50.0395 72.6799H53.0383Z" fill="white"/>
<path d="M42.9433 72.7651V75.0556H42.2051V68.5367C42.2639 68.5301 42.3227 68.5171 42.388 68.5171C43.2177 68.5171 44.0475 68.5171 44.8837 68.5171C45.3214 68.5171 45.7396 68.6215 46.125 68.8368C46.9025 69.274 47.1834 69.9723 47.1181 70.8336C47.0528 71.6819 46.5693 72.2431 45.7984 72.5237C45.3998 72.6673 44.9621 72.726 44.5375 72.7586C44.0213 72.7978 43.4987 72.7651 42.9499 72.7651H42.9433ZM42.9499 72.08C43.3941 72.08 43.8188 72.0865 44.25 72.08C44.5701 72.0734 44.8903 72.08 45.2039 72.0082C45.9748 71.8451 46.3994 71.2708 46.3668 70.5139C46.3341 69.8287 45.8506 69.3328 45.0797 69.2349C44.6877 69.1892 44.2827 69.1957 43.8841 69.1892C43.5771 69.1827 43.27 69.1892 42.9499 69.1892V72.08Z" fill="white"/>
<path d="M22.5009 50.1935H19.2539C19.2539 49.9847 19.2539 49.7889 19.2539 49.5932C19.2539 48.9471 19.2539 48.3011 19.2539 47.6551C19.2539 47.505 19.2931 47.4463 19.4564 47.4463C20.4168 47.4463 21.3707 47.4463 22.3311 47.4463C22.4421 47.4463 22.5401 47.4463 22.5336 47.6029C22.5336 48.4512 22.5336 49.293 22.5271 50.1413C22.5271 50.1543 22.514 50.1674 22.5009 50.1935Z" fill="white"/>
<path d="M79.2035 50.2003H75.9434C75.9369 50.1351 75.9238 50.0763 75.9238 50.0176C75.9238 49.2346 75.9238 48.4515 75.9238 47.675C75.9238 47.5119 75.963 47.4531 76.1394 47.4531C77.0998 47.4597 78.0537 47.4531 79.0141 47.4531C79.1121 47.4531 79.2101 47.4531 79.2101 47.5967C79.2101 48.458 79.2101 49.3194 79.2101 50.2069L79.2035 50.2003Z" fill="white"/>
</svg>
