<svg width="247" height="168" viewBox="0 0 247 168" fill="none" xmlns="http://www.w3.org/2000/svg">
<path d="M147.994 0C148.551 0.113898 149.122 0.213559 149.679 0.327458C151.007 0.612203 151.45 1.15322 151.136 2.47729C150.707 4.21424 150.207 5.93695 149.551 7.60271C147.308 13.3973 144.852 19.1064 141.739 24.5024C139.111 29.0868 135.784 33.1729 132.385 37.202C128.258 42.0712 123.76 46.5702 118.719 50.4997C113.078 54.8847 107.037 58.6292 100.682 61.8753C94.8412 64.8793 88.7719 67.3424 82.4741 69.2359C80.5605 69.8054 79.4466 71.0014 79.0467 73.0231C78.247 77.0237 77.2188 80.9959 76.4334 84.9966C75.805 88.2 75.3195 91.4461 74.9339 94.6922C74.5055 98.28 74.2199 101.896 73.9485 105.513C73.8057 107.477 73.7058 109.442 73.7772 111.407C73.9343 116.205 74.1056 121.017 74.4484 125.801C75.1053 135.012 76.6476 144.11 78.4184 153.165C78.7469 154.859 79.1039 156.539 79.4466 158.233C79.4752 158.361 79.4895 158.504 79.518 158.717C78.8325 158.774 78.1613 158.845 77.4902 158.902C76.8047 158.959 76.1192 158.959 75.448 159.059C75.0339 159.116 74.9054 158.988 74.8197 158.603C74.0199 155.087 73.106 151.599 72.4205 148.068C71.5494 143.654 70.7782 139.212 70.1213 134.756C69.6358 131.467 69.3502 128.15 69.136 124.833C68.8932 121.131 68.7504 117.429 68.7361 113.713C68.7075 108.047 69.036 102.409 69.6358 96.7709C70.8354 85.5234 73.0203 74.4753 76.4762 63.7119C80.2035 52.08 85.5587 41.2312 92.7277 31.3078C99.2968 22.2102 107.608 15.0631 117.348 9.51051C124.445 5.46712 131.971 2.54847 139.954 0.797288C141.539 0.455593 143.167 0.327458 144.766 0.099661C144.938 0.0711864 145.095 0.0284746 145.266 0C146.18 0 147.08 0 147.994 0ZM144.252 7.36068C144.281 5.9939 143.853 5.53831 142.91 5.53831C142.567 5.53831 142.21 5.53831 141.868 5.63797C140.925 5.89424 139.982 6.15051 139.054 6.46373C128.758 9.83797 119.347 14.8922 110.664 21.299C107.851 23.3776 105.052 25.4705 102.681 28.0475C93.8844 37.6007 87.2724 48.4922 82.9311 60.7363C82.774 61.1776 82.674 61.6475 82.6026 62.1031C82.4456 63.2278 83.0739 63.8542 84.2021 63.6692C84.7305 63.5837 85.2589 63.4271 85.7587 63.2278C94.4271 59.8251 102.538 55.3973 110.164 50.0868C113.592 47.6949 116.976 45.2461 119.932 42.299C127.201 35.038 133.456 26.9939 138.74 18.1953C140.454 15.3478 141.982 12.3864 143.524 9.45356C143.924 8.69898 144.095 7.83051 144.252 7.38915V7.36068Z" fill="white"/>
<path d="M19.433 118.069C20.4327 116.475 21.3895 114.937 22.3463 113.4C24.0457 110.68 25.7308 107.961 27.4445 105.242C27.5587 105.071 27.8015 104.871 27.9871 104.871C30.3006 104.843 32.5998 104.857 34.9133 104.871C34.9561 104.871 35.0132 104.886 35.0846 104.914V136.065H28.2442V115.962C28.2442 115.962 28.1585 115.934 28.13 115.92C25.231 120.305 22.3177 124.704 19.3473 129.203C16.4055 124.761 13.5208 120.404 10.6361 116.048C10.5933 116.048 10.5504 116.076 10.5219 116.09V136.094H3.82422V104.9H4.29548C6.45187 104.9 8.59397 104.9 10.7504 104.9C11.0931 104.9 11.2787 105 11.4501 105.284C13.9492 109.328 16.4769 113.357 18.9903 117.4C19.1331 117.614 19.2616 117.842 19.4473 118.112L19.433 118.069Z" fill="white"/>
<path d="M207.312 112.219H214.053V115.55C214.367 115.194 214.596 114.952 214.824 114.696C217.837 111.322 222.007 111.137 225.035 112.589C226.306 113.201 227.191 114.212 228.091 115.607C228.177 115.436 228.219 115.223 228.334 115.08C230.033 113.258 232.075 112.062 234.589 111.82C237.259 111.564 239.758 111.934 241.743 113.97C242.943 115.208 243.514 116.746 243.743 118.412C243.842 119.209 243.885 120.006 243.885 120.804C243.885 125.644 243.885 130.485 243.885 135.34V136.052H237.073V135.468C237.073 131.197 237.088 126.926 237.059 122.669C237.059 121.886 236.931 121.06 236.716 120.305C236.345 119.067 235.488 118.284 234.174 117.999C231.447 117.415 229.362 118.896 229.048 121.658C228.991 122.128 228.962 122.598 228.962 123.067C228.962 127.182 228.962 131.297 228.962 135.397C228.962 135.61 228.962 135.81 228.962 136.052H222.164C222.164 135.867 222.164 135.667 222.164 135.468C222.164 131.126 222.193 126.798 222.136 122.455C222.136 121.587 221.907 120.69 221.622 119.878C221.25 118.839 220.408 118.241 219.323 118.013C216.338 117.358 214.139 119.095 214.082 122.27C214.01 125.545 214.053 128.819 214.053 132.094C214.053 133.404 214.053 134.699 214.053 136.052H207.312V112.204V112.219Z" fill="white"/>
<path d="M104.732 126.499H88.0521C88.4234 128.25 89.2088 129.645 90.7654 130.457C93.0503 131.638 95.3638 131.425 97.5916 130.272C98.3484 129.887 99.0196 129.332 99.7908 128.819C101.019 129.901 102.318 131.04 103.618 132.194C101.804 134.415 99.548 135.838 96.7633 136.365C93.4359 136.977 90.2085 136.75 87.2238 135.013C83.7679 133.005 81.8257 129.958 81.383 125.986C81.0688 123.11 81.4258 120.363 82.8539 117.8C85.2673 113.457 89.78 111.222 94.7211 111.82C97.1917 112.119 99.4052 112.931 101.162 114.739C103.004 116.647 104.075 118.967 104.546 121.558C104.846 123.167 104.889 124.805 104.718 126.499H104.732ZM88.0235 122.256H98.1485C98.2056 119.551 95.8636 117.188 93.1788 117.188C90.4798 117.188 87.9807 119.622 88.0378 122.256H88.0235Z" fill="white"/>
<path d="M201.099 136.08H194.359V133.033C193.902 133.432 193.388 133.873 192.888 134.314C190.303 136.649 187.318 137.119 184.105 136.023C181.263 135.055 179.864 132.805 179.364 129.958C179.221 129.146 179.178 128.292 179.178 127.466C179.164 122.611 179.178 117.742 179.178 112.887C179.178 112.674 179.178 112.474 179.178 112.232H185.962V112.83C185.962 116.959 185.962 121.088 185.962 125.217C185.962 125.986 186.047 126.797 186.247 127.538C186.761 129.474 188.146 130.442 190.217 130.399C192.216 130.356 193.673 129.26 194.13 127.409C194.287 126.769 194.359 126.1 194.359 125.445C194.373 121.245 194.359 117.045 194.359 112.845V112.232H201.099V136.08Z" fill="white"/>
<path d="M109.977 112.218H116.703V115.564C117.017 115.208 117.245 114.952 117.474 114.71C119.83 112.133 122.715 111.25 126.099 112.005C129.098 112.674 131.198 115.052 131.712 118.312C131.84 119.095 131.897 119.906 131.897 120.704C131.912 125.616 131.897 130.527 131.897 135.439C131.897 135.639 131.897 135.852 131.897 136.08H125.114C125.114 135.866 125.114 135.667 125.114 135.468C125.114 131.325 125.114 127.182 125.114 123.039C125.114 122.384 125.043 121.715 124.914 121.074C124.514 119.109 123.115 117.942 121.23 117.927C118.931 117.899 117.417 118.938 116.931 120.96C116.788 121.586 116.717 122.227 116.717 122.868C116.703 127.054 116.717 131.225 116.717 135.411V136.08H109.977V112.233V112.218Z" fill="white"/>
<path d="M159.914 136.08H153.131C153.131 135.88 153.131 135.681 153.131 135.482C153.131 131.338 153.131 127.195 153.131 123.052C153.131 122.397 153.074 121.728 152.931 121.088C152.531 119.123 151.146 117.955 149.261 117.927C146.933 117.898 145.434 118.952 144.948 121.002C144.805 121.629 144.734 122.269 144.734 122.91C144.72 127.096 144.734 131.267 144.734 135.453V136.094H137.965V112.232H144.705V115.578C144.92 115.336 145.048 115.208 145.162 115.08C146.49 113.556 148.033 112.346 150.061 111.962C154.445 111.122 158.857 112.987 159.729 118.425C159.857 119.194 159.9 119.977 159.914 120.76C159.929 125.658 159.914 130.555 159.914 135.439C159.914 135.638 159.914 135.852 159.914 136.08Z" fill="white"/>
<path d="M62.5661 136.08H55.8398V103.577H62.5661V136.08Z" fill="white"/>
<path d="M49.0569 112.232V136.066H42.3164V112.232H49.0569Z" fill="white"/>
<path d="M172.894 136.08H166.168V112.232H172.894V136.08Z" fill="white"/>
<path d="M132.38 158.02C133.823 159.942 135.251 161.821 136.736 163.814C136.065 163.814 135.479 163.843 134.894 163.8C134.751 163.8 134.579 163.601 134.479 163.458C133.266 161.864 132.066 160.255 130.881 158.646C130.666 158.361 130.452 158.248 130.095 158.262C128.91 158.276 127.725 158.262 126.482 158.262V163.786H124.883V149.534C125.054 149.534 125.211 149.506 125.354 149.506C127.368 149.506 129.381 149.506 131.381 149.506C132.409 149.506 133.394 149.734 134.28 150.275C135.75 151.157 136.322 152.51 136.207 154.176C136.107 155.713 135.293 156.781 133.937 157.436C133.451 157.678 132.937 157.82 132.366 158.02H132.38ZM126.497 156.724C128.31 156.724 130.081 156.81 131.823 156.696C133.023 156.61 134.022 155.984 134.437 154.759C135.051 152.966 133.98 151.328 131.98 151.086C130.738 150.944 129.467 151.001 128.224 150.972C127.653 150.972 127.082 150.972 126.482 150.972V156.738L126.497 156.724Z" fill="white"/>
<path d="M141.867 149.519H143.467V157.777C144.224 157.094 145.023 156.41 145.766 155.656C147.637 153.748 149.479 151.826 151.321 149.904C151.592 149.619 151.864 149.477 152.278 149.505C152.735 149.534 153.206 149.505 153.806 149.505C151.707 151.641 149.707 153.677 147.665 155.755C149.779 158.418 151.892 161.066 154.077 163.814C153.392 163.814 152.806 163.842 152.221 163.799C152.064 163.799 151.907 163.628 151.792 163.486C150.221 161.521 148.665 159.557 147.094 157.592C146.923 157.378 146.751 157.165 146.48 156.823C146.18 157.165 145.909 157.506 145.609 157.82C144.995 158.46 144.352 159.072 143.738 159.727C143.581 159.898 143.481 160.169 143.467 160.411C143.438 161.521 143.467 162.632 143.467 163.785H141.867V149.534V149.519Z" fill="white"/>
<path d="M119.971 163.799C119.372 163.799 118.743 163.985 118.358 163.743C117.986 163.515 117.858 162.874 117.644 162.418C117.329 161.764 117.03 161.094 116.758 160.411C116.644 160.14 116.501 160.012 116.187 160.012C113.845 160.012 111.503 160.012 109.161 160.012C108.847 160.012 108.69 160.112 108.575 160.397C108.147 161.408 107.661 162.39 107.247 163.401C107.104 163.728 106.933 163.842 106.59 163.814C106.233 163.785 105.862 163.814 105.434 163.814C105.505 163.643 105.548 163.5 105.605 163.358C107.633 158.873 109.675 154.403 111.703 149.918C111.874 149.519 112.088 149.334 112.517 149.406C112.717 149.434 112.945 149.377 113.145 149.42C113.317 149.463 113.545 149.562 113.616 149.705C115.73 154.317 117.829 158.945 119.914 163.572C119.943 163.629 119.957 163.7 120 163.814L119.971 163.799ZM115.93 158.574C114.845 156.14 113.788 153.762 112.66 151.256C111.531 153.748 110.46 156.14 109.375 158.574H115.93Z" fill="white"/>
<path d="M93.8715 158.76V163.757H92.2578V149.534C92.3863 149.52 92.5149 149.492 92.6577 149.492C94.4713 149.492 96.285 149.492 98.1129 149.492C99.0697 149.492 99.9837 149.719 100.826 150.189C102.526 151.143 103.14 152.667 102.997 154.546C102.854 156.397 101.797 157.621 100.112 158.233C99.2411 158.547 98.2843 158.675 97.356 158.746C96.2278 158.831 95.0854 158.76 93.8858 158.76H93.8715ZM93.8858 157.265C94.8569 157.265 95.7851 157.279 96.7277 157.265C97.4274 157.251 98.1272 157.265 98.8127 157.109C100.498 156.753 101.426 155.5 101.355 153.848C101.283 152.353 100.226 151.271 98.5413 151.058C97.6845 150.958 96.7991 150.972 95.9279 150.958C95.2568 150.944 94.5856 150.958 93.8858 150.958V157.265Z" fill="white"/>
<path d="M49.1834 109.513H42.0859C42.0859 109.058 42.0859 108.631 42.0859 108.204C42.0859 106.794 42.0859 105.385 42.0859 103.975C42.0859 103.648 42.1716 103.52 42.5286 103.52C44.6279 103.52 46.7129 103.52 48.8121 103.52C49.0549 103.52 49.2691 103.52 49.2548 103.861C49.2548 105.712 49.2548 107.549 49.2406 109.4C49.2406 109.428 49.212 109.456 49.1834 109.513Z" fill="white"/>
<path d="M173.122 109.528H165.996C165.982 109.386 165.953 109.258 165.953 109.129C165.953 107.421 165.953 105.712 165.953 104.018C165.953 103.662 166.039 103.534 166.424 103.534C168.524 103.548 170.609 103.534 172.708 103.534C172.922 103.534 173.136 103.534 173.136 103.847C173.136 105.727 173.136 107.606 173.136 109.542L173.122 109.528Z" fill="white"/>
</svg>
