<svg width="66" height="1150" viewBox="0 0 66 1150" fill="none" xmlns="http://www.w3.org/2000/svg">
<rect y="90" width="4" height="1060" fill="url(#paint0_linear_477_48)"/>
<path fill-rule="evenodd" clip-rule="evenodd" d="M64.0829 0.13423C63.8572 0.0904591 63.6315 0.0466885 63.4087 0H61.2261C61.1576 0.0116724 61.0919 0.026263 61.0262 0.0408535C60.9605 0.0554441 60.8947 0.0700346 60.8262 0.081707C60.4161 0.141543 60.0037 0.192992 59.5909 0.244499C58.7151 0.353755 57.8373 0.463272 56.9753 0.653656C50.5876 2.08937 44.5656 4.48221 38.8863 7.79718C31.0931 12.3494 24.4426 18.209 19.1862 25.6677C13.4499 33.8034 9.16473 42.6978 6.18229 52.2341C3.41695 61.0585 1.66862 70.1163 0.708755 79.3375C0.306688 83.2099 0.0570002 87.0822 0 90.9683H4.01186C3.97785 89.4803 4.05415 87.9923 4.15971 86.5044C4.37682 83.5396 4.60536 80.5748 4.94817 77.6333C5.2567 74.972 5.64522 72.3107 6.14801 69.6844C6.47152 67.9961 6.8465 66.3139 7.22152 64.6316C7.57505 63.0456 7.92862 61.4595 8.23914 59.8679C8.5591 58.2104 9.45041 57.2299 10.9816 56.763C16.0209 55.2106 20.8774 53.1913 25.551 50.7284C30.6361 48.0671 35.4697 44.9972 39.9833 41.4021C44.0171 38.1805 47.6166 34.492 50.919 30.5001C53.6386 27.1968 56.3011 23.8468 58.4037 20.0883C60.8947 15.6644 62.8602 10.9838 64.6542 6.23308C65.1799 4.8674 65.5798 3.45504 65.9226 2.031C66.174 0.945467 65.8198 0.501915 64.7571 0.268466C64.5342 0.221775 64.3085 0.178002 64.0829 0.13423ZM59.3407 4.54058C60.0949 4.54058 60.4377 4.91409 60.4148 6.03465V6.05799C60.3782 6.16351 60.3405 6.29882 60.2977 6.4529C60.1936 6.82718 60.0587 7.31226 59.832 7.75049C59.7007 8.00633 59.5696 8.26243 59.4383 8.51865C58.3361 10.6706 57.2293 12.8313 56.004 14.9174C51.776 22.1309 46.771 28.7259 40.9546 34.6788C38.5892 37.095 35.881 39.1026 33.1386 41.0636C27.0366 45.4174 20.546 49.0476 13.6098 51.8373C13.2099 52.0007 12.7871 52.1291 12.3643 52.1991C11.4616 52.3509 10.9588 51.8373 11.0845 50.9151C11.1416 50.5416 11.2216 50.1564 11.3473 49.7946C14.8211 39.7563 20.1118 30.8269 27.1508 22.9947C29.0477 20.882 31.2874 19.1661 33.5385 17.462C40.4861 12.2094 48.0165 8.06565 56.2554 5.29928C56.9981 5.04249 57.7523 4.83239 58.5065 4.62228C58.7807 4.54058 59.0664 4.54058 59.3407 4.54058Z" fill="white"/>
<defs>
<linearGradient id="paint0_linear_477_48" x1="2" y1="90" x2="2" y2="1150" gradientUnits="userSpaceOnUse">
<stop stop-color="white"/>
<stop offset="1" stop-color="white" stop-opacity="0"/>
</linearGradient>
</defs>
</svg>
