<svg width="100" height="100" viewBox="0 0 100 100" fill="none" xmlns="http://www.w3.org/2000/svg">
<path d="M81.1115 32.7051H72.6135C71.8045 32.7051 71.1486 33.3611 71.1486 34.1699C71.1486 34.9787 71.8045 35.6348 72.6135 35.6348H81.1115C81.9203 35.6348 82.5764 34.9785 82.5764 34.1699C82.5764 33.3613 81.9203 32.7051 81.1115 32.7051ZM72.6135 23.7625H76.4715C76.86 23.7625 77.2326 23.6082 77.5073 23.3335C77.782 23.0587 77.9363 22.6862 77.9363 22.2977C77.9363 21.9092 77.782 21.5366 77.5073 21.2619C77.2326 20.9871 76.86 20.8328 76.4715 20.8328H72.6133C72.2248 20.8328 71.8522 20.9871 71.5775 21.2619C71.3028 21.5366 71.1484 21.9092 71.1484 22.2977C71.1484 22.6862 71.3028 23.0587 71.5775 23.3335C71.8522 23.6082 72.2248 23.7625 72.6133 23.7625H72.6135ZM72.6135 11.8896H77.8387C78.6482 11.8896 79.3035 11.2344 79.3035 10.4248C79.3035 10.0363 79.1492 9.66372 78.8745 9.389C78.5998 9.11429 78.2272 8.95996 77.8387 8.95996H72.6133C72.2248 8.95996 71.8522 9.11429 71.5775 9.389C71.3028 9.66372 71.1484 10.0363 71.1484 10.4248C71.1484 10.8133 71.3028 11.1859 71.5775 11.4606C71.8522 11.7353 72.2248 11.8896 72.6133 11.8896H72.6135ZM77.8395 56.45H72.6133C72.2248 56.45 71.8522 56.6043 71.5775 56.879C71.3028 57.1538 71.1484 57.5263 71.1484 57.9148C71.1484 58.3033 71.3028 58.6759 71.5775 58.9506C71.8522 59.2254 72.2248 59.3797 72.6133 59.3797H77.8395C78.228 59.3797 78.6005 59.2254 78.8753 58.9506C79.15 58.6759 79.3043 58.3033 79.3043 57.9148C79.3043 57.5263 79.15 57.1538 78.8753 56.879C78.6005 56.6043 78.228 56.45 77.8395 56.45ZM72.6135 47.5068H76.4715C76.6638 47.5068 76.8543 47.4689 77.0321 47.3953C77.2098 47.3217 77.3713 47.2138 77.5073 47.0778C77.6433 46.9418 77.7512 46.7803 77.8248 46.6026C77.8984 46.4248 77.9363 46.2344 77.9363 46.042C77.9363 45.8496 77.8984 45.6591 77.8248 45.4814C77.7512 45.3037 77.6433 45.1422 77.5073 45.0062C77.3713 44.8702 77.2098 44.7623 77.0321 44.6887C76.8543 44.615 76.6638 44.5772 76.4715 44.5772H72.6133C72.4209 44.5772 72.2304 44.615 72.0527 44.6887C71.875 44.7623 71.7135 44.8702 71.5775 45.0062C71.4415 45.1422 71.3336 45.3037 71.2599 45.4814C71.1863 45.6591 71.1484 45.8496 71.1484 46.042C71.1484 46.2344 71.1863 46.4248 71.2599 46.6026C71.3336 46.7803 71.4415 46.9418 71.5775 47.0778C71.7135 47.2138 71.875 47.3217 72.0527 47.3953C72.2304 47.4689 72.4209 47.5068 72.6133 47.5068H72.6135Z" fill="white"/>
<path d="M66.2551 60.5088V13.25C66.2551 5.94414 60.3117 0 53.0051 0C45.6998 0 39.7559 5.94414 39.7559 13.25V60.5088C34.2824 64.6545 31.0371 71.1471 31.0371 78.0318C31.0371 90.1451 40.8918 100 53.0051 100C65.1189 100 74.9738 90.1451 74.9738 78.0318C74.9738 71.1471 71.7291 64.6545 66.2551 60.5088ZM53.0051 97.0703C42.5078 97.0703 33.9666 88.5299 33.9666 78.0318C33.9666 71.843 36.9939 66.018 42.0637 62.4512C42.2558 62.3158 42.4126 62.1363 42.5208 61.9277C42.629 61.7191 42.6855 61.4875 42.6855 61.2525V13.25C42.6855 7.55918 47.315 2.92969 53.0051 2.92969C58.6957 2.92969 63.3254 7.55918 63.3254 13.25V61.2525C63.3254 61.4875 63.3818 61.7191 63.49 61.9277C63.5982 62.1363 63.755 62.3158 63.9471 62.4512C69.0168 66.0188 72.0441 71.843 72.0441 78.0318C72.0441 88.5299 63.5031 97.0703 53.0051 97.0703Z" fill="white"/>
<path d="M59.4176 63.4102V13.2484C59.4176 9.71211 56.5413 6.83594 53.0051 6.83594C49.4696 6.83594 46.5934 9.71211 46.5934 13.2484V50.8689C46.5934 51.6785 47.2495 52.3338 48.0583 52.3338C48.8671 52.3338 49.5231 51.6785 49.5231 50.8689V23.7586H56.4879V64.3906C56.4879 64.6893 56.5792 64.9809 56.7495 65.2263C56.9198 65.4717 57.161 65.6592 57.4409 65.7637C62.3817 67.6041 65.7004 72.3838 65.7004 77.6582C65.7004 84.6588 60.0057 90.3535 53.0051 90.3535C46.0051 90.3535 40.3098 84.6588 40.3098 77.6582C40.3098 72.3838 43.6294 67.6041 48.5694 65.7637C48.8494 65.6593 49.0907 65.4718 49.2612 65.2264C49.4316 64.981 49.523 64.6894 49.5231 64.3906V56.7299C49.5231 55.9213 48.8669 55.265 48.0583 55.265C47.2497 55.265 46.5934 55.9213 46.5934 56.7299V63.4102C41.043 65.9111 37.3801 71.5125 37.3801 77.6582C37.3801 86.2738 44.3899 93.2832 53.0051 93.2832C61.621 93.2832 68.6301 86.2738 68.6301 77.6582C68.6301 71.5125 64.968 65.9119 59.4176 63.4102ZM49.5231 20.8289V13.2484C49.5231 11.3281 51.0856 9.76562 53.0059 9.76562C54.9254 9.76562 56.4879 11.3281 56.4879 13.2484V20.8289H49.5231ZM31.4108 31.2812C33.5975 31.4818 34.5413 28.5721 32.6559 27.4512C30.3633 26.0887 30.3594 22.7691 32.6559 21.4043C34.5426 20.282 33.5952 17.3729 31.4108 17.5734C28.7526 17.8199 26.8026 15.132 27.8563 12.6816C28.7237 10.665 26.2465 8.86758 24.5985 10.3141C22.5944 12.0734 19.435 11.0512 18.8467 8.4457C18.3631 6.3041 15.303 6.30645 14.82 8.4457C14.2325 11.0465 11.0762 12.0758 9.06803 10.3141C7.41959 8.86602 4.94361 10.6658 5.81041 12.6814C6.86549 15.1346 4.91158 17.8191 2.25572 17.5734C0.0701778 17.3742 -0.874549 20.2826 1.01158 21.4043C3.30729 22.7691 3.3026 26.0895 1.0108 27.4512C-0.873768 28.5721 0.0693964 31.4811 2.25592 31.2812C4.911 31.0348 6.86549 33.7203 5.81041 36.1732C4.94303 38.1896 7.42018 39.9871 9.06822 38.5404C11.0723 36.7813 14.2317 37.8043 14.82 40.409C15.3036 42.5506 18.3637 42.5482 18.8467 40.409C19.4342 37.8082 22.5913 36.7781 24.5987 38.5406C26.2481 39.9879 28.7237 38.1881 27.8563 36.1732C26.8036 33.7258 28.751 31.0355 31.4108 31.2812ZM29.4753 28.5346C26.5196 29.2885 24.4475 32.1006 24.6465 35.1807C21.8124 34.0529 18.4837 35.1104 16.834 37.7197C15.2014 35.1371 11.8856 34.0408 9.02076 35.1807C9.21842 32.1297 7.1776 29.2959 4.19225 28.5346C6.14069 26.1879 6.16373 22.6951 4.19225 20.3201C7.16158 19.5633 9.2192 16.742 9.02096 13.6742C11.8612 14.8041 15.1878 13.7396 16.834 11.1357C18.4714 13.726 21.7901 14.8102 24.6465 13.6742C24.4491 16.725 26.4899 19.5586 29.4753 20.3201C27.5169 22.6791 27.5124 26.1711 29.4753 28.5346Z" fill="white"/>
<path d="M16.8336 16.3513C12.3803 16.3513 8.75781 19.9744 8.75781 24.4277C8.75781 28.881 12.3803 32.5042 16.8334 32.5042C21.2865 32.5042 24.91 28.881 24.91 24.4277C24.91 19.9744 21.2869 16.3513 16.8334 16.3513H16.8336ZM16.8336 29.5738C13.9961 29.5738 11.6875 27.2652 11.6875 24.4277C11.6875 21.5896 13.9961 19.281 16.8334 19.281C19.6717 19.281 21.9803 21.5896 21.9803 24.4277C21.9803 27.265 19.6717 29.5738 16.8334 29.5738H16.8336Z" fill="white"/>
</svg>
