<svg width="100" height="100" viewBox="0 0 100 100" fill="none" xmlns="http://www.w3.org/2000/svg">
<g clip-path="url(#clip0_474_2010)">
<mask id="mask0_474_2010" style="mask-type:luminance" maskUnits="userSpaceOnUse" x="0" y="0" width="100" height="100">
<path d="M0 0.000297546H99.9997V100H0V0.000297546Z" fill="white"/>
</mask>
<g mask="url(#mask0_474_2010)">
<path d="M15.24 9.01286C13.4766 9.01286 12.0469 10.4425 12.0469 12.2062C12.0469 13.9697 13.4766 15.3992 15.24 15.3992C17.0037 15.3992 18.4334 13.9697 18.4334 12.2062C18.4334 10.4425 17.0037 9.01286 15.24 9.01286Z" stroke="white" stroke-width="3" stroke-miterlimit="10" stroke-linecap="round" stroke-linejoin="round"/>
<path d="M15.2402 22.737V41.095" stroke="white" stroke-width="3" stroke-miterlimit="10" stroke-linecap="round" stroke-linejoin="round"/>
<path d="M15.2383 2.47803V1.61065" stroke="white" stroke-width="3" stroke-miterlimit="10" stroke-linecap="round" stroke-linejoin="round"/>
<path d="M7.85937 5.53589L7.24609 4.92261" stroke="white" stroke-width="3" stroke-miterlimit="10" stroke-linecap="round" stroke-linejoin="round"/>
<path d="M4.80293 12.915H3.93555" stroke="white" stroke-width="3" stroke-miterlimit="10" stroke-linecap="round" stroke-linejoin="round"/>
<path d="M7.85937 20.2974L7.24609 20.9106" stroke="white" stroke-width="3" stroke-miterlimit="10" stroke-linecap="round" stroke-linejoin="round"/>
<path d="M22.6211 20.2974L23.2344 20.9106" stroke="white" stroke-width="3" stroke-miterlimit="10" stroke-linecap="round" stroke-linejoin="round"/>
<path d="M25.6758 12.915H26.5432" stroke="white" stroke-width="3" stroke-miterlimit="10" stroke-linecap="round" stroke-linejoin="round"/>
<path d="M22.6211 5.53589L23.2344 4.92261" stroke="white" stroke-width="3" stroke-miterlimit="10" stroke-linecap="round" stroke-linejoin="round"/>
<path d="M44.4336 15.4999V15.8569" stroke="white" stroke-width="3" stroke-miterlimit="10" stroke-linecap="round" stroke-linejoin="round"/>
<path d="M39.9961 17.338L40.2484 17.5906" stroke="white" stroke-width="3" stroke-miterlimit="10" stroke-linecap="round" stroke-linejoin="round"/>
<path d="M38.1582 21.7773H38.5152" stroke="white" stroke-width="3" stroke-miterlimit="10" stroke-linecap="round" stroke-linejoin="round"/>
<path d="M39.9961 26.2151L40.2484 25.9625" stroke="white" stroke-width="3" stroke-miterlimit="10" stroke-linecap="round" stroke-linejoin="round"/>
<path d="M44.4336 28.0518V27.6947" stroke="white" stroke-width="3" stroke-miterlimit="10" stroke-linecap="round" stroke-linejoin="round"/>
<path d="M48.8717 26.2151L48.6191 25.9625" stroke="white" stroke-width="3" stroke-miterlimit="10" stroke-linecap="round" stroke-linejoin="round"/>
<path d="M50.7086 21.7766H50.3516" stroke="white" stroke-width="3" stroke-miterlimit="10" stroke-linecap="round" stroke-linejoin="round"/>
<path d="M48.8717 17.338L48.6191 17.5906" stroke="white" stroke-width="3" stroke-miterlimit="10" stroke-linecap="round" stroke-linejoin="round"/>
<path d="M67.5859 1.46792V1.82495" stroke="white" stroke-width="3" stroke-miterlimit="10" stroke-linecap="round" stroke-linejoin="round"/>
<path d="M63.1445 3.30601L63.3971 3.55835" stroke="white" stroke-width="3" stroke-miterlimit="10" stroke-linecap="round" stroke-linejoin="round"/>
<path d="M61.3086 7.73926H61.6656" stroke="white" stroke-width="3" stroke-miterlimit="10" stroke-linecap="round" stroke-linejoin="round"/>
<path d="M63.1445 12.1826L63.3971 11.9301" stroke="white" stroke-width="3" stroke-miterlimit="10" stroke-linecap="round" stroke-linejoin="round"/>
<path d="M67.5859 14.0198V13.6627" stroke="white" stroke-width="3" stroke-miterlimit="10" stroke-linecap="round" stroke-linejoin="round"/>
<path d="M72.0219 12.1826L71.7695 11.9301" stroke="white" stroke-width="3" stroke-miterlimit="10" stroke-linecap="round" stroke-linejoin="round"/>
<path d="M73.8609 7.73926H73.5039" stroke="white" stroke-width="3" stroke-miterlimit="10" stroke-linecap="round" stroke-linejoin="round"/>
<path d="M72.0219 3.30601L71.7695 3.55835" stroke="white" stroke-width="3" stroke-miterlimit="10" stroke-linecap="round" stroke-linejoin="round"/>
<path d="M48.6357 56.9242V46.5263C48.6357 46.0947 48.2861 45.7451 47.8544 45.7451H21.6113C21.4041 45.7451 21.2054 45.8274 21.0589 45.9739C20.9124 46.1204 20.8301 46.3191 20.8301 46.5263V98.5352H48.6357V63.7601" stroke="white" stroke-width="3" stroke-miterlimit="10" stroke-linecap="round" stroke-linejoin="round"/>
<path d="M28.6289 45.7458V39.0093C28.6289 38.8021 28.7112 38.6034 28.8577 38.4569C29.0042 38.3104 29.203 38.2281 29.4102 38.2281H40.055C40.2622 38.2281 40.461 38.3104 40.6075 38.4569C40.754 38.6034 40.8363 38.8021 40.8363 39.0093V45.7458" stroke="white" stroke-width="3" stroke-miterlimit="10" stroke-linecap="round" stroke-linejoin="round"/>
<path d="M34.7344 38.2263V30.2552" stroke="white" stroke-width="3" stroke-miterlimit="10" stroke-linecap="round" stroke-linejoin="round"/>
<path d="M41.7422 53.5477V90.7349" stroke="white" stroke-width="3" stroke-miterlimit="10" stroke-linecap="round" stroke-linejoin="round"/>
<path d="M34.7344 53.5477V90.7349" stroke="white" stroke-width="3" stroke-miterlimit="10" stroke-linecap="round" stroke-linejoin="round"/>
<path d="M27.7266 53.5477V90.7349" stroke="white" stroke-width="3" stroke-miterlimit="10" stroke-linecap="round" stroke-linejoin="round"/>
<path d="M48.6367 98.5352H72.9017C73.1089 98.5352 73.3076 98.4528 73.4541 98.3063C73.6006 98.1598 73.6829 97.9611 73.6829 97.7539V70.8097C73.6829 70.6025 73.6006 70.4037 73.4541 70.2572C73.3076 70.1107 73.1089 70.0284 72.9017 70.0284H48.6367" stroke="white" stroke-width="3" stroke-miterlimit="10" stroke-linecap="round" stroke-linejoin="round"/>
<path d="M67.5352 76.4007V77.0386" stroke="white" stroke-width="3" stroke-miterlimit="10" stroke-linecap="round" stroke-linejoin="round"/>
<path d="M61.1582 76.4007V77.0386" stroke="white" stroke-width="3" stroke-miterlimit="10" stroke-linecap="round" stroke-linejoin="round"/>
<path d="M54.7871 76.4007V77.0386" stroke="white" stroke-width="3" stroke-miterlimit="10" stroke-linecap="round" stroke-linejoin="round"/>
<path d="M67.5332 83.9629V84.6008" stroke="white" stroke-width="3" stroke-miterlimit="10" stroke-linecap="round" stroke-linejoin="round"/>
<path d="M61.1582 83.9629V84.6008" stroke="white" stroke-width="3" stroke-miterlimit="10" stroke-linecap="round" stroke-linejoin="round"/>
<path d="M54.7852 83.9629V84.6008" stroke="white" stroke-width="3" stroke-miterlimit="10" stroke-linecap="round" stroke-linejoin="round"/>
<path d="M67.5352 91.5252V92.1631" stroke="white" stroke-width="3" stroke-miterlimit="10" stroke-linecap="round" stroke-linejoin="round"/>
<path d="M61.1582 91.5252V92.1631" stroke="white" stroke-width="3" stroke-miterlimit="10" stroke-linecap="round" stroke-linejoin="round"/>
<path d="M54.7871 91.5252V92.1631" stroke="white" stroke-width="3" stroke-miterlimit="10" stroke-linecap="round" stroke-linejoin="round"/>
<path d="M20.8312 59.7314H4.71679C4.50959 59.7314 4.31088 59.8137 4.16437 59.9602C4.01786 60.1068 3.93555 60.3055 3.93555 60.5127V85.0708" stroke="white" stroke-width="3" stroke-miterlimit="10" stroke-linecap="round" stroke-linejoin="round"/>
<path d="M3.93555 91.9096V97.7539C3.93555 97.8565 3.95575 97.9581 3.99502 98.0529C4.03428 98.1477 4.09182 98.2338 4.16437 98.3063C4.23691 98.3789 4.32304 98.4364 4.41782 98.4757C4.51261 98.5149 4.6142 98.5352 4.71679 98.5352H20.8312" stroke="white" stroke-width="3" stroke-miterlimit="10" stroke-linecap="round" stroke-linejoin="round"/>
<path d="M15.2695 66.043V66.6809" stroke="white" stroke-width="3" stroke-miterlimit="10" stroke-linecap="round" stroke-linejoin="round"/>
<path d="M9.49609 66.043V66.6809" stroke="white" stroke-width="3" stroke-miterlimit="10" stroke-linecap="round" stroke-linejoin="round"/>
<path d="M15.2695 72.4273V73.0652" stroke="white" stroke-width="3" stroke-miterlimit="10" stroke-linecap="round" stroke-linejoin="round"/>
<path d="M9.49609 72.4273V73.0652" stroke="white" stroke-width="3" stroke-miterlimit="10" stroke-linecap="round" stroke-linejoin="round"/>
<path d="M15.2695 78.8177V79.4556" stroke="white" stroke-width="3" stroke-miterlimit="10" stroke-linecap="round" stroke-linejoin="round"/>
<path d="M9.49609 78.8177V79.4556" stroke="white" stroke-width="3" stroke-miterlimit="10" stroke-linecap="round" stroke-linejoin="round"/>
<path d="M15.2695 85.2022V85.8398" stroke="white" stroke-width="3" stroke-miterlimit="10" stroke-linecap="round" stroke-linejoin="round"/>
<path d="M9.49609 85.2022V85.8398" stroke="white" stroke-width="3" stroke-miterlimit="10" stroke-linecap="round" stroke-linejoin="round"/>
<path d="M15.2695 91.5923V92.2302" stroke="white" stroke-width="3" stroke-miterlimit="10" stroke-linecap="round" stroke-linejoin="round"/>
<path d="M9.49609 91.5923V92.2302" stroke="white" stroke-width="3" stroke-miterlimit="10" stroke-linecap="round" stroke-linejoin="round"/>
<path d="M84.2374 38.9133C81.8245 39.8805 80.7099 40.9952 79.7427 43.4081C79.498 44.0186 78.6388 44.0186 78.3941 43.4081C77.4267 40.9952 76.3121 39.8805 73.8992 38.9133C73.2888 38.6686 73.2888 37.8094 73.8992 37.5647C76.3121 36.5973 77.4267 35.4827 78.3941 33.07C78.6388 32.4595 79.498 32.4595 79.7427 33.07C80.7099 35.4827 81.8245 36.5973 84.2374 37.5647C84.8478 37.8094 84.8478 38.6686 84.2374 38.9133Z" stroke="white" stroke-width="3" stroke-miterlimit="10" stroke-linecap="round" stroke-linejoin="round"/>
<path d="M70.5742 23.5226L72.9844 27.697" stroke="white" stroke-width="3" stroke-miterlimit="10" stroke-linecap="round" stroke-linejoin="round"/>
<path d="M62.0781 38.2385H66.8984" stroke="white" stroke-width="3" stroke-miterlimit="10" stroke-linecap="round" stroke-linejoin="round"/>
<path d="M70.5742 52.9536L72.9844 48.7792" stroke="white" stroke-width="3" stroke-miterlimit="10" stroke-linecap="round" stroke-linejoin="round"/>
<path d="M87.5664 52.9541L85.1562 48.7797" stroke="white" stroke-width="3" stroke-miterlimit="10" stroke-linecap="round" stroke-linejoin="round"/>
<path d="M96.0644 38.2385H91.2441" stroke="white" stroke-width="3" stroke-miterlimit="10" stroke-linecap="round" stroke-linejoin="round"/>
<path d="M87.5664 23.5234L85.1562 27.6978" stroke="white" stroke-width="3" stroke-miterlimit="10" stroke-linecap="round" stroke-linejoin="round"/>
<path d="M79.0703 24.5864V24.7925" stroke="white" stroke-width="3" stroke-miterlimit="10" stroke-linecap="round" stroke-linejoin="round"/>
<path d="M67.2461 31.4095L67.4246 31.5125" stroke="white" stroke-width="3" stroke-miterlimit="10" stroke-linecap="round" stroke-linejoin="round"/>
<path d="M67.2461 45.0623L67.4246 44.9593" stroke="white" stroke-width="3" stroke-miterlimit="10" stroke-linecap="round" stroke-linejoin="round"/>
<path d="M90.8934 45.0623L90.7148 44.9593" stroke="white" stroke-width="3" stroke-miterlimit="10" stroke-linecap="round" stroke-linejoin="round"/>
<path d="M90.8934 31.4095L90.7148 31.5125" stroke="white" stroke-width="3" stroke-miterlimit="10" stroke-linecap="round" stroke-linejoin="round"/>
<path d="M79.0703 50.1429V66.9006" stroke="white" stroke-width="3" stroke-miterlimit="10" stroke-linecap="round" stroke-linejoin="round"/>
</g>
</g>
<defs>
<clipPath id="clip0_474_2010">
<rect width="100" height="100" fill="white"/>
</clipPath>
</defs>
</svg>
