<svg width="128" height="87" viewBox="0 0 128 87" fill="none" xmlns="http://www.w3.org/2000/svg">
<path d="M76.691 0C76.9796 0.058983 77.2756 0.110593 77.5642 0.169576C78.2525 0.317034 78.4819 0.597203 78.3191 1.28288C78.0971 2.18237 77.838 3.07449 77.4976 3.93712C76.3357 6.93788 75.0628 9.89441 73.4495 12.6887C72.0878 15.0628 70.3635 17.1788 68.6022 19.2653C66.4634 21.7869 64.1323 24.1167 61.5199 26.1516C58.5967 28.4225 55.4663 30.3615 52.173 32.0425C49.1462 33.5982 46.001 34.8737 42.7374 35.8543C41.7457 36.1492 41.1685 36.7686 40.9613 37.8155C40.5468 39.8873 40.014 41.9443 39.607 44.0161C39.2813 45.675 39.0297 47.356 38.8299 49.037C38.6079 50.895 38.4599 52.7677 38.3193 54.6404C38.2453 55.6579 38.1935 56.6753 38.2305 57.6928C38.3119 60.1775 38.4007 62.6695 38.5783 65.1468C38.9187 69.917 39.718 74.6283 40.6356 79.3175C40.8058 80.1948 40.9909 81.0648 41.1685 81.9422C41.1833 82.0086 41.1907 82.0823 41.2055 82.1929C40.8502 82.2224 40.5024 82.2592 40.1546 82.2887C39.7994 82.3182 39.4441 82.3182 39.0963 82.3698C38.8817 82.3993 38.8151 82.333 38.7707 82.1339C38.3563 80.3128 37.8826 78.5064 37.5274 76.678C37.076 74.3924 36.6764 72.092 36.3359 69.7843C36.0843 68.0812 35.9363 66.3633 35.8253 64.6454C35.6995 62.7285 35.6255 60.8115 35.6181 58.8872C35.6033 55.9528 35.7735 53.0331 36.0843 50.1135C36.706 44.2889 37.8382 38.5675 39.6292 32.9936C41.5607 26.97 44.3359 21.3519 48.051 16.213C51.4552 11.5017 55.7623 7.80051 60.8094 4.92508C64.4875 2.83119 68.3876 1.31975 72.5245 0.412881C73.3459 0.235932 74.1896 0.169576 75.0184 0.0516102C75.1073 0.0368644 75.1887 0.0147458 75.2775 0C75.7511 0 76.2173 0 76.691 0ZM74.752 3.81178C74.7668 3.10398 74.5448 2.86805 74.0564 2.86805C73.8788 2.86805 73.6937 2.86805 73.5161 2.91966C73.0277 3.05237 72.5393 3.18508 72.0582 3.34729C66.7225 5.09466 61.8455 7.71203 57.346 11.0298C55.8881 12.1063 54.4376 13.1901 53.2091 14.5246C48.6504 19.4718 45.224 25.112 42.9742 31.4527C42.8928 31.6813 42.841 31.9246 42.804 32.1605C42.7226 32.743 43.0482 33.0674 43.6328 32.9715C43.9067 32.9273 44.1805 32.8462 44.4395 32.743C48.9316 30.9808 53.1351 28.6879 57.087 25.9378C58.8631 24.6992 60.617 23.431 62.1489 21.9048C65.9158 18.1447 69.1572 13.979 71.8954 9.42254C72.7835 7.94797 73.5753 6.41441 74.3746 4.89559C74.5818 4.50483 74.6706 4.05508 74.752 3.82652V3.81178Z" fill="#B8CEBB"/>
<path d="M10.0731 61.143C10.5912 60.3172 11.087 59.5209 11.5828 58.7247C12.4635 57.3165 13.3368 55.9082 14.2248 54.5C14.284 54.4115 14.4098 54.3083 14.5061 54.3083C15.7049 54.2936 16.8964 54.3009 18.0953 54.3083C18.1175 54.3083 18.1471 54.3157 18.1841 54.3304V70.4623H14.6393V60.0518C14.6393 60.0518 14.5949 60.037 14.5801 60.0297C13.0778 62.3005 11.568 64.5787 10.0287 66.9086C8.50423 64.6082 7.00933 62.3521 5.51442 60.096C5.49222 60.096 5.47002 60.1108 5.45522 60.1181V70.477H1.98438V54.3231H2.22859C3.34607 54.3231 4.45615 54.3231 5.57363 54.3231C5.75124 54.3231 5.84745 54.3747 5.93625 54.5221C7.23134 56.616 8.54124 58.7026 9.84373 60.7965C9.91773 60.907 9.98434 61.025 10.0805 61.1651L10.0731 61.143Z" fill="#123E3C"/>
<path d="M107.434 58.1132H110.927V59.8384C111.089 59.6541 111.208 59.5287 111.326 59.396C112.888 57.6487 115.049 57.5528 116.618 58.3049C117.276 58.6219 117.735 59.1454 118.201 59.8679C118.246 59.7794 118.268 59.6688 118.327 59.5951C119.208 58.6514 120.266 58.0321 121.569 57.9067C122.952 57.774 124.248 57.9657 125.276 59.02C125.898 59.6615 126.194 60.4577 126.312 61.3204C126.364 61.7332 126.386 62.1461 126.386 62.559C126.386 65.0658 126.386 67.5726 126.386 70.0867V70.4554H122.856V70.1531C122.856 67.9412 122.864 65.7293 122.849 63.5249C122.849 63.1193 122.782 62.6917 122.671 62.301C122.479 61.6595 122.035 61.254 121.354 61.1065C119.94 60.8043 118.86 61.571 118.697 63.0014C118.668 63.2447 118.653 63.488 118.653 63.7313C118.653 65.8621 118.653 67.9928 118.653 70.1162C118.653 70.2268 118.653 70.33 118.653 70.4554H115.13C115.13 70.3595 115.13 70.2563 115.13 70.1531C115.13 67.9043 115.145 65.663 115.115 63.4143C115.115 62.9645 114.997 62.5 114.849 62.0798C114.657 61.5415 114.22 61.2319 113.657 61.1139C112.111 60.7748 110.971 61.6743 110.941 63.3184C110.904 65.0142 110.927 66.7099 110.927 68.4057C110.927 69.084 110.927 69.7549 110.927 70.4554H107.434V58.1058V58.1132Z" fill="#123E3C"/>
<path d="M54.2737 65.5083H45.6299C45.8223 66.4152 46.2294 67.1377 47.036 67.558C48.2201 68.1699 49.419 68.0593 50.5735 67.4621C50.9657 67.2631 51.3135 66.9755 51.7132 66.7101C52.3496 67.2705 53.023 67.8603 53.6965 68.4575C52.7566 69.6076 51.5873 70.3449 50.1442 70.6177C48.4199 70.9348 46.7474 70.8168 45.2007 69.9173C43.4098 68.8777 42.4033 67.2999 42.1739 65.2429C42.0111 63.7536 42.1961 62.3306 42.9361 61.0035C44.1868 58.7548 46.5254 57.5972 49.086 57.9069C50.3663 58.0617 51.5133 58.482 52.4236 59.4183C53.3783 60.4063 53.9333 61.6081 54.1775 62.9499C54.3329 63.7831 54.3551 64.631 54.2663 65.5083H54.2737ZM45.6151 63.3112H50.8621C50.8917 61.9104 49.678 60.6865 48.2867 60.6865C46.888 60.6865 45.5929 61.9472 45.6225 63.3112H45.6151Z" fill="#123E3C"/>
<path d="M104.215 70.4702H100.722V68.8924C100.485 69.0988 100.218 69.3274 99.9594 69.5559C98.6199 70.7651 97.0731 71.0084 95.408 70.4407C93.9353 69.9393 93.2101 68.7744 92.9511 67.2998C92.8771 66.8796 92.8549 66.4372 92.8549 66.0096C92.8475 63.4954 92.8549 60.9739 92.8549 58.4598C92.8549 58.3492 92.8549 58.2459 92.8549 58.1206H96.3701V58.4303C96.3701 60.5684 96.3701 62.7065 96.3701 64.8447C96.3701 65.2428 96.4145 65.6631 96.5181 66.0465C96.7845 67.0492 97.5024 67.5505 98.5754 67.5284C99.6115 67.5063 100.366 66.9386 100.603 65.9801C100.685 65.6483 100.722 65.3018 100.722 64.9626C100.729 62.7876 100.722 60.6126 100.722 58.4376V58.1206H104.215V70.4702Z" fill="#123E3C"/>
<path d="M56.9902 58.113H60.4759V59.8456C60.6387 59.6613 60.7571 59.5286 60.8755 59.4032C62.0966 58.0687 63.5915 57.6116 65.3454 58.0024C66.8995 58.3489 67.9874 59.5802 68.2538 61.2686C68.3204 61.6741 68.35 62.0943 68.35 62.5072C68.3574 65.0509 68.35 67.5945 68.35 70.1381C68.35 70.2414 68.35 70.352 68.35 70.4699H64.8348C64.8348 70.3593 64.8348 70.2561 64.8348 70.1529C64.8348 68.0074 64.8348 65.8619 64.8348 63.7164C64.8348 63.3772 64.7978 63.0307 64.7312 62.6989C64.524 61.6815 63.7987 61.0769 62.8218 61.0695C61.6304 61.0548 60.8459 61.593 60.5943 62.6399C60.5203 62.9643 60.4833 63.2961 60.4833 63.6279C60.4759 65.7955 60.4833 67.9558 60.4833 70.1234V70.4699H56.9902V58.1204V58.113Z" fill="#123E3C"/>
<path d="M82.8726 70.4697H79.3574C79.3574 70.3665 79.3574 70.2633 79.3574 70.1601C79.3574 68.0146 79.3574 65.869 79.3574 63.7235C79.3574 63.3844 79.3278 63.0379 79.2538 62.7061C79.0466 61.6886 78.3287 61.084 77.3519 61.0693C76.1456 61.0546 75.3685 61.6001 75.1169 62.6618C75.0429 62.9862 75.0059 63.318 75.0059 63.6498C74.9985 65.8174 75.0059 67.9777 75.0059 70.1453V70.4771H71.498V58.1201H74.9911V59.8528C75.1021 59.7274 75.1687 59.6611 75.2279 59.5947C75.9162 58.8058 76.7154 58.1791 77.7663 57.9801C80.0382 57.5451 82.325 58.5109 82.7764 61.3273C82.843 61.7255 82.8652 62.131 82.8726 62.5365C82.88 65.0728 82.8726 67.609 82.8726 70.1379C82.8726 70.2412 82.8726 70.3518 82.8726 70.4697Z" fill="#123E3C"/>
<path d="M32.4212 70.47H28.9355V53.6377H32.4212V70.47Z" fill="#123E3C"/>
<path d="M25.4208 58.1206V70.4628H21.9277V58.1206H25.4208Z" fill="#123E3C"/>
<path d="M89.5989 70.4702H86.1133V58.1206H89.5989V70.4702Z" fill="#123E3C"/>
<path d="M68.6021 81.8313C69.3495 82.8267 70.0896 83.7999 70.8592 84.8321C70.5114 84.8321 70.208 84.8469 69.9046 84.8247C69.8306 84.8247 69.7417 84.7215 69.6899 84.6478C69.0609 83.822 68.4393 82.9889 67.825 82.1558C67.714 82.0083 67.603 81.9493 67.418 81.9567C66.8037 81.9641 66.1895 81.9567 65.5457 81.9567V84.8174H64.7168V77.4371C64.8056 77.4371 64.887 77.4224 64.961 77.4224C66.0045 77.4224 67.048 77.4224 68.084 77.4224C68.6169 77.4224 69.1275 77.5403 69.5863 77.8205C70.3486 78.2776 70.6446 78.978 70.5854 79.8407C70.5336 80.6369 70.1118 81.1899 69.4087 81.5291C69.1571 81.6544 68.8907 81.7281 68.5947 81.8313H68.6021ZM65.5531 81.1604C66.4929 81.1604 67.4106 81.2046 68.3134 81.1457C68.9351 81.1014 69.4531 80.777 69.6677 80.143C69.986 79.214 69.4309 78.3661 68.3949 78.2408C67.751 78.167 67.0924 78.1965 66.4485 78.1818C66.1525 78.1818 65.8565 78.1818 65.5457 78.1818V81.1678L65.5531 81.1604Z" fill="#123E3C"/>
<path d="M73.5176 77.4296H74.3464V81.7059C74.7387 81.352 75.1531 80.9981 75.5379 80.6073C76.5074 79.6194 77.4621 78.624 78.4167 77.6287C78.5573 77.4812 78.6979 77.4075 78.9126 77.4223C79.1494 77.437 79.3936 77.4223 79.7044 77.4223C78.6165 78.5282 77.5805 79.5825 76.5222 80.659C77.6175 82.0377 78.7127 83.409 79.845 84.832C79.4898 84.832 79.1864 84.8468 78.883 84.8246C78.8015 84.8246 78.7201 84.7362 78.6609 84.6624C77.8469 83.645 77.0402 82.6275 76.2262 81.6101C76.1374 81.4995 76.0486 81.3889 75.9079 81.2119C75.7525 81.3889 75.6119 81.5658 75.4565 81.728C75.1383 82.0598 74.8053 82.3768 74.487 82.716C74.4056 82.8045 74.3538 82.9445 74.3464 83.0699C74.3316 83.645 74.3464 84.2201 74.3464 84.8173H73.5176V77.437V77.4296Z" fill="#123E3C"/>
<path d="M62.1724 84.8245C61.8616 84.8245 61.536 84.9204 61.3361 84.795C61.1437 84.6771 61.0771 84.3453 60.9661 84.1093C60.8033 83.7702 60.6479 83.4237 60.5073 83.0698C60.4481 82.9297 60.3741 82.8633 60.2113 82.8633C58.9976 82.8633 57.7839 82.8633 56.5702 82.8633C56.4074 82.8633 56.326 82.9149 56.2668 83.0624C56.0448 83.5859 55.7932 84.0946 55.5785 84.6181C55.5045 84.7876 55.4157 84.8466 55.2381 84.8319C55.0531 84.8171 54.8607 84.8319 54.6387 84.8319C54.6757 84.7434 54.6979 84.6697 54.7275 84.596C55.7783 82.2735 56.8366 79.9584 57.8875 77.636C57.9763 77.4295 58.0873 77.3337 58.3093 77.3705C58.4129 77.3853 58.5313 77.3558 58.635 77.3779C58.7238 77.4 58.8422 77.4516 58.8792 77.5254C59.9744 79.9142 61.0623 82.3104 62.1428 84.7065C62.1576 84.736 62.165 84.7729 62.1872 84.8319L62.1724 84.8245ZM60.0781 82.1187C59.5156 80.8579 58.968 79.6266 58.3833 78.329C57.7987 79.6193 57.2437 80.8579 56.6812 82.1187H60.0781Z" fill="#123E3C"/>
<path d="M48.6449 82.2148V84.8027H47.8086V77.4372C47.8752 77.4298 47.9418 77.415 48.0158 77.415C48.9557 77.415 49.8955 77.415 50.8428 77.415C51.3386 77.415 51.8123 77.533 52.2489 77.7763C53.1296 78.2703 53.4478 79.0592 53.3738 80.0324C53.2998 80.9909 52.7521 81.625 51.8789 81.942C51.4274 82.1042 50.9316 82.1705 50.4506 82.2074C49.8659 82.2516 49.2739 82.2148 48.6523 82.2148H48.6449ZM48.6523 81.4406C49.1555 81.4406 49.6365 81.448 50.125 81.4406C50.4876 81.4333 50.8502 81.4406 51.2054 81.3595C52.0787 81.1752 52.5597 80.5264 52.5227 79.6711C52.4857 78.897 51.9381 78.3366 51.0648 78.2261C50.6208 78.1744 50.162 78.1818 49.7105 78.1744C49.3627 78.1671 49.0149 78.1744 48.6523 78.1744V81.4406Z" fill="#123E3C"/>
<path d="M25.4886 56.7124H21.8105C21.8105 56.4764 21.8105 56.2553 21.8105 56.0341C21.8105 55.3042 21.8105 54.5742 21.8105 53.8443C21.8105 53.6748 21.855 53.6084 22.04 53.6084C23.1278 53.6084 24.2083 53.6084 25.2962 53.6084C25.422 53.6084 25.533 53.6084 25.5256 53.7853C25.5256 54.7438 25.5256 55.6949 25.5182 56.6534C25.5182 56.6681 25.5034 56.6829 25.4886 56.7124Z" fill="#123E3C"/>
<path d="M89.717 56.7197H86.0242C86.0168 56.646 86.002 56.5796 86.002 56.5133C86.002 55.6285 86.002 54.7438 86.002 53.8664C86.002 53.6821 86.0464 53.6157 86.2462 53.6157C87.334 53.6231 88.4145 53.6157 89.5024 53.6157C89.6134 53.6157 89.7244 53.6157 89.7244 53.7779C89.7244 54.7511 89.7244 55.7244 89.7244 56.7271L89.717 56.7197Z" fill="#123E3C"/>
</svg>
