<svg width="100" height="100" viewBox="0 0 100 100" fill="none" xmlns="http://www.w3.org/2000/svg">
<g clip-path="url(#clip0_468_3813)">
<path d="M34.0301 62.1963H28.1662C26.3396 62.1963 24.8535 60.7109 24.8535 58.8838V55.6152C24.8535 55.4223 24.7168 55.2551 24.5148 55.1994C22.4773 54.6436 20.5191 53.8302 18.6875 52.7787C18.5211 52.6832 18.325 52.7023 18.2006 52.8268L15.866 55.1613C15.5591 55.4698 15.1941 55.7144 14.7921 55.8808C14.39 56.0473 13.959 56.1323 13.5238 56.1311C12.6396 56.1311 11.8072 55.7869 11.1816 55.1613L7.03516 51.0148C6.72655 50.708 6.48186 50.3429 6.31524 49.9409C6.14862 49.5388 6.06338 49.1077 6.06445 48.6725C6.06445 47.7875 6.40938 46.9551 7.03516 46.3303L9.36895 43.9957C9.49395 43.8713 9.51309 43.6754 9.41699 43.509C8.36609 41.6772 7.5529 39.719 6.99707 37.6816C6.94121 37.4795 6.77422 37.3428 6.58105 37.3428H3.3127C1.48613 37.3428 0 35.8564 0 34.0303V28.166C0 26.3395 1.48633 24.8533 3.3125 24.8533H6.58105C6.77422 24.8533 6.94121 24.7176 6.99707 24.5146C7.55307 22.4773 8.36646 20.5192 9.41758 18.6875C9.51289 18.5211 9.49375 18.325 9.36953 18.2008L7.03516 15.866C6.72645 15.5592 6.48169 15.1943 6.31507 14.7922C6.14844 14.3902 6.06326 13.959 6.06445 13.5238C6.06445 12.6396 6.40938 11.8072 7.03516 11.1816L11.1816 7.03516C11.8072 6.40938 12.6387 6.06543 13.5238 6.06543C14.409 6.06543 15.2412 6.40937 15.8668 7.03574L18.2008 9.36973C18.325 9.49395 18.5203 9.51309 18.6875 9.41777C20.519 8.36657 22.4769 7.55305 24.5141 6.99688C24.7178 6.94121 24.8535 6.77422 24.8535 6.58105V3.3127C24.8535 1.48613 26.3398 0 28.166 0H34.0301C35.8566 0 37.3428 1.48633 37.3428 3.3125V6.58105C37.3428 6.77422 37.4787 6.94121 37.6816 6.99609C39.7188 7.55268 41.6767 8.36645 43.5082 9.41777C43.6752 9.51309 43.8705 9.49395 43.9957 9.36973L46.3295 7.03516C47.6242 5.74121 49.7201 5.74023 51.0146 7.03574L51.4533 7.47461C52.8229 8.84316 50.7529 10.917 49.382 9.5459C49.1119 9.3125 48.7656 8.74258 48.4016 9.10723L46.067 11.4412C45.0111 12.4969 43.3594 12.7098 42.0502 11.9584C40.4346 11.0314 38.7077 10.3138 36.9109 9.82285C35.4402 9.42246 34.4123 8.08867 34.4123 6.58027V3.3127C34.4123 3.10137 34.2408 2.92969 34.0295 2.92969H28.1654C28.064 2.92989 27.9668 2.97031 27.8952 3.04207C27.8235 3.11384 27.7833 3.21109 27.7832 3.3125V6.58105C27.7832 8.08945 26.7555 9.42227 25.2846 9.82363C23.4876 10.3142 21.7605 11.0315 20.1447 11.9584C18.8361 12.7098 17.1844 12.4969 16.1285 11.441L13.7945 9.10703C13.7592 9.07116 13.7171 9.04276 13.6706 9.02353C13.6241 9.00431 13.5742 8.99464 13.5238 8.99512C13.4516 8.99512 13.3461 9.01406 13.2537 9.10723L9.10645 13.2537C9.07068 13.289 9.04233 13.331 9.02308 13.3774C9.00383 13.4238 8.99405 13.4736 8.99434 13.5238C8.99434 13.5963 9.01406 13.7023 9.10645 13.7947L11.441 16.1293C12.4969 17.1852 12.7098 18.8363 11.9584 20.1455C11.0314 21.7613 10.3138 23.4884 9.82285 25.2854C9.42246 26.7563 8.08867 27.7832 6.58105 27.7832H3.3127C3.10137 27.7832 2.92969 27.9557 2.92969 28.166V34.0301C2.92969 34.2414 3.10137 34.4131 3.3125 34.4131H6.58105C8.08887 34.4131 9.42227 35.44 9.82363 36.9111C10.3119 38.7047 11.0307 40.4336 11.9584 42.051C12.7098 43.3602 12.4969 45.0111 11.441 46.067L9.10703 48.4016C9.07108 48.4368 9.04263 48.479 9.0234 48.5256C9.00417 48.5721 8.99455 48.6221 8.99512 48.6725C8.99512 48.7441 9.01484 48.8502 9.10723 48.9434L13.2537 53.0891C13.4033 53.2387 13.6459 53.2395 13.7955 53.0891L16.1293 50.7553C17.1852 49.6994 18.8369 49.4865 20.1461 50.2381C21.7616 51.1651 23.4886 51.8827 25.2854 52.3734C26.7563 52.774 27.784 54.1078 27.784 55.616V58.8836C27.784 59.0949 27.9557 59.2666 28.1662 59.2666H34.0301C34.2414 59.2666 34.4131 59.0949 34.4131 58.8838V55.616C34.4131 54.1076 35.4408 52.7742 36.9117 52.3734C38.7832 51.8639 39.5508 54.6906 37.6824 55.1996C37.4793 55.2551 37.3428 55.4223 37.3428 55.616V58.8836C37.3428 60.7102 35.8564 62.1963 34.0303 62.1963H34.0301Z" fill="white"/>
<path d="M17.291 31.0954C17.291 21.4091 27.0307 14.7693 36.0059 18.1888C37.8148 18.8792 36.775 21.6173 34.9623 20.9271C27.8791 18.2269 20.2201 23.4851 20.2201 31.0954C20.2201 37.2859 25.434 42.3228 31.7465 41.9528C33.6768 41.836 33.8574 44.7634 31.9189 44.8778C23.9592 45.3464 17.291 38.9987 17.291 31.0954Z" fill="white"/>
<path d="M81.0631 65.0517L66.2207 62.1656V58.4982C70.3887 55.6546 72.6453 51.6279 73.1367 47.1052C75.3004 46.9335 77.0078 45.1185 77.0078 42.9121V39.9015C80.535 38.3681 80.0588 33.2205 76.3273 32.3523V31.1902C76.3273 20.7433 67.858 12.2742 57.4117 12.2742H55.8258C45.3785 12.2742 36.9102 20.7433 36.9102 31.1896V32.3523C33.1801 33.2197 32.701 38.3679 36.2295 39.9015V42.9121C36.2295 45.1185 37.9369 46.9335 40.1006 47.1054C40.5295 51.0511 42.3789 54.6628 45.2963 57.1746C45.8444 57.6478 46.4189 58.0897 47.0168 58.4982V62.1656L32.1744 65.0519C24.3437 66.5748 18.2402 70.989 18.2402 79.1341V94.0337C18.2402 97.3302 20.9127 100.003 24.2094 100.003H89.0279C92.3248 100.003 94.9973 97.3302 94.9973 94.0335V79.1341C94.9973 71.0158 88.9311 66.5814 81.0629 65.0519L81.0631 65.0517ZM68.8703 65.6652C67.3907 67.8164 65.9088 69.9662 64.4248 72.1144C63.7092 73.1513 62.425 73.2832 61.923 72.9826L59.609 71.5949C61.8658 70.2621 64.9885 67.9732 65.9361 65.0947L68.8703 65.6652ZM56.6184 69.8867C54.3937 68.7665 49.9586 65.9994 49.9465 63.3841V60.1156C52.0532 61.0259 54.3238 61.4954 56.6188 61.4954C58.9137 61.4954 61.1843 61.0259 63.291 60.1156V63.3726C63.291 65.9925 58.8453 68.7658 56.6184 69.8867ZM39.8398 31.1894C39.8398 25.1806 43.1723 19.9355 48.0863 17.2056V19.0419C48.0863 20.9785 51.016 20.9814 51.016 19.0419V15.9429C52.357 15.5193 53.7484 15.2756 55.1535 15.2183V22.4615C55.1535 24.3978 58.0832 24.4009 58.0832 22.4615V15.2181C59.4886 15.2755 60.8801 15.5192 62.2213 15.9429V19.0419C62.2213 20.9785 65.151 20.9814 65.151 19.0419V17.2056C70.065 19.9355 73.3977 25.1806 73.3977 31.1896V32.2486H39.8398V31.1894ZM37.8148 35.1783H75.4225C76.8264 35.1783 76.8248 37.3 75.4225 37.3H37.815C36.4104 37.3 36.4119 35.1783 37.815 35.1783H37.8148ZM42.9373 45.622C42.9291 45.239 42.7712 44.8744 42.4974 44.6064C42.2235 44.3384 41.8556 44.1883 41.4725 44.1884C41.2283 44.1283 39.1584 44.5693 39.1584 42.9121V40.2304H74.0783V42.9121C74.0783 44.5664 71.9533 44.1419 71.7643 44.1884C71.3812 44.1886 71.0134 44.3387 70.7396 44.6066C70.4658 44.8746 70.3078 45.239 70.2994 45.622C70.2207 49.2841 68.6645 52.6853 66.0299 54.9544C60.4354 59.7716 52.8021 59.7724 47.2076 54.9544C44.5723 52.6853 43.0158 49.2841 42.9373 45.622ZM47.3006 65.0947C48.2488 67.9732 51.3709 70.2621 53.6283 71.5947C51.309 72.8369 51.473 73.2085 50.4193 73.0841C49.7641 73.0054 49.1758 72.6408 48.8004 72.0976C47.3206 69.9546 45.8426 67.8105 44.3662 65.6652L47.3006 65.0947ZM30.399 97.0732H24.2084C22.5301 97.0732 21.1689 95.7121 21.1689 94.0335V79.1341C21.1689 74.7443 23.1631 71.7093 27.5381 69.6126C27.7148 70.3925 30.399 77.6777 30.399 87.8576V97.0732ZM55.1533 97.0732H33.3287V87.8576C33.3287 76.8279 30.5439 69.7255 30.2701 68.5232C31.9805 67.9548 30.7102 68.3927 41.2305 66.2749C44.2539 70.6687 49.8965 78.8664 53.223 83.5943C54.4865 85.3896 55.1533 87.4984 55.1533 89.6933V97.0732ZM56.6182 83.5669C56.3245 82.9916 55.9908 82.4375 55.6195 81.9089C54.4949 80.3113 53.0355 78.2148 51.5125 76.0167C51.9739 75.9144 52.4158 75.7383 52.8211 75.4951L56.618 73.2177L60.416 75.4951C60.8212 75.7384 61.2631 75.9146 61.7246 76.0167C60.2016 78.2134 58.7422 80.3097 57.6176 81.9089C57.2458 82.4373 56.9118 82.9914 56.6182 83.5669ZM92.0674 94.0337C92.0674 95.7121 90.707 97.0732 89.0277 97.0732H82.8373V91.5464C82.8373 89.6101 79.9076 89.607 79.9076 91.5464V97.0732H58.0832V89.6933C58.0832 87.4984 58.7508 85.3896 60.0135 83.5951C61.9055 80.9056 69.6959 69.6638 72.0068 66.2748C82.5217 68.3919 81.2537 67.9541 82.9664 68.5232C82.7535 69.4242 80.2887 76.1236 79.9482 85.6267C79.8779 87.5677 82.8063 87.663 82.8756 85.7322C83.2053 76.5357 85.4613 70.6183 85.6984 69.6126C90.0732 71.7093 92.0676 74.7443 92.0676 79.1333L92.0674 94.0337Z" fill="white"/>
</g>
<defs>
<clipPath id="clip0_468_3813">
<rect width="100" height="100" fill="white"/>
</clipPath>
</defs>
</svg>
