<svg width="100" height="100" viewBox="0 0 100 100" fill="none" xmlns="http://www.w3.org/2000/svg">
<g clip-path="url(#clip0_474_2517)">
<mask id="mask0_474_2517" style="mask-type:luminance" maskUnits="userSpaceOnUse" x="0" y="0" width="100" height="100">
<path d="M98.4997 98.5V1.5003H1.5V98.5H98.4997Z" fill="white" stroke="white" stroke-width="3"/>
</mask>
<g mask="url(#mask0_474_2517)">
<path d="M27.6942 21.9911C26.5094 21.0091 25.4766 19.9077 24.668 18.6206C20.3885 11.8078 26.4489 5.89333 34.1307 1.43886H48.655C46.7631 3.32264 40.2174 6.74041 41.1545 10.8496C41.5951 12.7808 43.5256 13.989 44.8029 14.7763C45.8094 15.3966 46.8672 15.9097 47.9453 16.3624C57.9937 20.5781 68.7876 22.3964 78.3079 28.2128C84.8104 32.1854 89.6594 38.2889 91.1752 46.3784C92.2246 51.9787 91.653 57.7608 90.5252 63.3719L90.5039 63.4766" stroke="white" stroke-width="3" stroke-miterlimit="10" stroke-linecap="round" stroke-linejoin="round"/>
<path d="M88.9486 70.0917C88.5451 71.6485 88.131 73.1796 87.732 74.676C85.5433 82.8893 82.9008 90.6383 80.3334 98.5596H11.9648C12.9346 97.04 30.5964 75.6008 38.1171 67.078C42.0657 62.6032 51.6229 50.8941 50.021 41.8107C48.3694 32.4465 40.4569 29.3266 33.5827 25.7086L33.4638 25.6459" stroke="white" stroke-width="3" stroke-miterlimit="10" stroke-linecap="round" stroke-linejoin="round"/>
<path d="M48.6543 1.43682H56.2002C56.2002 1.43682 49.0631 6.86591 47.8803 8.21415C46.4289 9.86863 48.6748 10.8944 50.0606 11.4169C52.7865 12.4448 55.5561 13.2333 58.3086 14.1717C61.2949 15.1885 64.2667 16.2476 67.223 17.3487C69.0666 18.0364 70.9066 18.7342 72.7273 19.4809C76.3117 20.9512 79.8345 22.6127 83.0894 24.726C85.414 26.2352 87.6134 27.9856 89.5714 30.025C93.9026 34.5361 96.5433 40.4471 97.7341 46.8031C99.5102 56.2857 97.8977 66.1339 95.5497 74.9464C93.3612 83.1592 91.2491 90.6377 88.6806 98.5596L80.3337 98.559" stroke="white" stroke-width="3" stroke-miterlimit="10" stroke-linecap="round" stroke-linejoin="round"/>
<path d="M34.131 1.43682H26.1124C20.0644 4.94384 15.6546 12.4776 18.9921 19.9899C21.7271 26.1451 28.3734 28.885 33.438 32.1897C36.2466 34.0221 39.304 35.635 41.6343 38.1976C43.777 40.5543 44.3579 43.5615 43.4944 46.7017C41.3274 54.5831 34.3269 61.3038 29.2318 67.0778C21.7111 75.6009 2.47949 97.04 1.50977 98.5596H13.1396" stroke="white" stroke-width="3" stroke-miterlimit="10" stroke-linecap="round" stroke-linejoin="round"/>
<path d="M35.7709 7.54871C33.2563 9.49109 32.3512 14.4604 34.4217 16.9877C36.3586 19.3522 39.6162 20.4041 42.2699 21.7092C46.0521 23.5696 49.7348 25.5446 53.5082 27.4559C56.1961 28.8174 58.673 30.5004 61.3871 31.8936C67.4074 34.9832 71.9157 41.5906 71.811 48.4625C71.6859 56.6773 66.74 63.573 62.8941 70.5556C58.9572 77.7028 50.4469 92.0178 46.2713 98.5596" stroke="white" stroke-width="3" stroke-miterlimit="10" stroke-linecap="round" stroke-linejoin="round" stroke-dasharray="20 40"/>
</g>
</g>
<defs>
<clipPath id="clip0_474_2517">
<rect width="100" height="100" fill="white"/>
</clipPath>
</defs>
</svg>
