<svg width="100" height="100" viewBox="0 0 100 100" fill="none" xmlns="http://www.w3.org/2000/svg">
<g clip-path="url(#clip0_468_3737)">
<path d="M50 0C22.4308 0 0 22.4288 0 50C0 77.5712 22.4308 100 50 100C77.5692 100 100 77.5712 100 50C100 22.4288 77.5692 0 50 0ZM50 96.1538C24.5519 96.1538 3.84615 75.4481 3.84615 50C3.84615 24.5519 24.5519 3.84615 50 3.84615C75.4481 3.84615 96.1538 24.5519 96.1538 50C96.1538 75.4481 75.4481 96.1538 50 96.1538Z" fill="white"/>
<path d="M73.5622 29.4922L44.0064 62.7422L26.2006 48.498C25.8019 48.1833 25.2949 48.039 24.7903 48.0968C24.2856 48.1546 23.8243 48.4097 23.5071 48.8064C23.1898 49.2031 23.0425 49.7093 23.0971 50.2143C23.1517 50.7193 23.404 51.1822 23.7987 51.5019L43.0295 66.8865C43.4143 67.1951 43.9031 67.344 44.3947 67.3021C44.8862 67.2602 45.3428 67.0308 45.6699 66.6615L76.4391 32.0461C76.6068 31.8572 76.7356 31.6371 76.8183 31.3984C76.9009 31.1597 76.9357 30.9071 76.9207 30.6549C76.9057 30.4028 76.8412 30.1561 76.7308 29.9289C76.6205 29.7016 76.4665 29.4984 76.2776 29.3307C76.0887 29.163 75.8686 29.0342 75.6299 28.9515C75.3912 28.8689 75.1385 28.8341 74.8864 28.8491C74.6343 28.8641 74.3875 28.9286 74.1603 29.039C73.9331 29.1493 73.7299 29.3033 73.5622 29.4922Z" fill="white"/>
</g>
<defs>
<clipPath id="clip0_468_3737">
<rect width="100" height="100" fill="white"/>
</clipPath>
</defs>
</svg>
